M48
; DRILL file {KiCad 9.0.7} date 2026-05-02T19:19:38+0530
; FORMAT={-:-/ absolute / metric / decimal}
; #@! TF.CreationDate,2026-05-02T19:19:38+05:30
; #@! TF.GenerationSoftware,Kicad,Pcbnew,9.0.7
; #@! TF.FileFunction,Plated,1,2,PTH
FMAT,2
METRIC
; #@! TA.AperFunction,Plated,PTH,ComponentDrill
T1C0.200
; #@! TA.AperFunction,Plated,PTH,ViaDrill
T2C0.310
; #@! TA.AperFunction,Plated,PTH,ComponentDrill
T3C1.000
; #@! TA.AperFunction,Plated,PTH,ComponentDrill
T4C3.200
%
G90
G05
T1
X58.21Y-40.667
X58.21Y-42.067
X59.41Y-40.667
X59.41Y-42.067
X60.61Y-40.667
X60.61Y-42.067
T2
X53.185Y-57.328
X53.185Y-58.828
X53.185Y-60.328
X54.685Y-57.328
X54.685Y-58.828
X54.685Y-60.328
X56.134Y-45.085
X56.185Y-57.328
X56.185Y-58.828
X56.185Y-60.328
X57.685Y-57.328
X57.685Y-58.828
X57.685Y-60.328
X58.141Y-52.857
X59.185Y-57.328
X59.185Y-58.828
X59.185Y-60.328
X61.316Y-52.934
X62.535Y-45.085
X71.397Y-41.223
X71.397Y-42.723
X71.397Y-44.223
X72.06Y-61.493
X72.06Y-62.993
X72.644Y-55.143
X72.897Y-41.223
X72.897Y-42.723
X72.897Y-44.223
X74.397Y-41.223
X74.397Y-42.723
X74.397Y-44.223
X75.897Y-41.223
X75.897Y-42.723
X75.897Y-44.223
X77.397Y-41.223
X77.397Y-42.723
X77.397Y-44.223
X78.08Y-53.72
X78.08Y-55.22
X78.08Y-56.72
T3
X54.254Y-48.935
X54.254Y-51.435
X66.162Y-33.888
X66.537Y-66.472
X68.662Y-33.888
X69.037Y-66.472
T4
X54.458Y-64.948
X75.286Y-33.884
M30
