%TF.GenerationSoftware,KiCad,Pcbnew,9.0.7*%
%TF.CreationDate,2026-05-02T19:19:38+05:30*%
%TF.ProjectId,LiPo_Charge_Boost,4c69506f-5f43-4686-9172-67655f426f6f,rev?*%
%TF.SameCoordinates,Original*%
%TF.FileFunction,Drillmap*%
%TF.FilePolarity,Positive*%
%FSLAX45Y45*%
G04 Gerber Fmt 4.5, Leading zero omitted, Abs format (unit mm)*
G04 Created by KiCad (PCBNEW 9.0.7) date 2026-05-02 19:19:38*
%MOMM*%
%LPD*%
G01*
G04 APERTURE LIST*
%ADD10C,0.050000*%
%ADD11C,0.200000*%
%ADD12C,0.100000*%
%ADD13C,0.320000*%
G04 APERTURE END LIST*
D10*
X5300000Y-6950000D02*
G75*
G02*
X5000000Y-6650000I0J300000D01*
G01*
X5000000Y-6650000D02*
X5000000Y-3300000D01*
X7900000Y-6650000D02*
G75*
G02*
X7600000Y-6950000I-300000J0D01*
G01*
X7600000Y-6950000D02*
X5300000Y-6950000D01*
X7900000Y-3300000D02*
X7900000Y-6650000D01*
X5000000Y-3300000D02*
G75*
G02*
X5300000Y-3000000I300000J0D01*
G01*
X7600000Y-3000000D02*
G75*
G02*
X7900000Y-3300000I0J-300000D01*
G01*
X5300000Y-3000000D02*
X7600000Y-3000000D01*
D11*
D12*
X5810980Y-4056720D02*
X5830980Y-4076720D01*
X5830980Y-4056720D02*
X5810980Y-4076720D01*
X5810980Y-4196720D02*
X5830980Y-4216720D01*
X5830980Y-4196720D02*
X5810980Y-4216720D01*
X5930980Y-4056720D02*
X5950980Y-4076720D01*
X5950980Y-4056720D02*
X5930980Y-4076720D01*
X5930980Y-4196720D02*
X5950980Y-4216720D01*
X5950980Y-4196720D02*
X5930980Y-4216720D01*
X6050980Y-4056720D02*
X6070980Y-4076720D01*
X6070980Y-4056720D02*
X6050980Y-4076720D01*
X6050980Y-4196720D02*
X6070980Y-4216720D01*
X6070980Y-4196720D02*
X6050980Y-4216720D01*
X5333980Y-5732780D02*
G75*
G02*
X5302980Y-5732780I-15500J0D01*
G01*
X5302980Y-5732780D02*
G75*
G02*
X5333980Y-5732780I15500J0D01*
G01*
X5333980Y-5882780D02*
G75*
G02*
X5302980Y-5882780I-15500J0D01*
G01*
X5302980Y-5882780D02*
G75*
G02*
X5333980Y-5882780I15500J0D01*
G01*
X5333980Y-6032780D02*
G75*
G02*
X5302980Y-6032780I-15500J0D01*
G01*
X5302980Y-6032780D02*
G75*
G02*
X5333980Y-6032780I15500J0D01*
G01*
X5483980Y-5732780D02*
G75*
G02*
X5452980Y-5732780I-15500J0D01*
G01*
X5452980Y-5732780D02*
G75*
G02*
X5483980Y-5732780I15500J0D01*
G01*
X5483980Y-5882780D02*
G75*
G02*
X5452980Y-5882780I-15500J0D01*
G01*
X5452980Y-5882780D02*
G75*
G02*
X5483980Y-5882780I15500J0D01*
G01*
X5483980Y-6032780D02*
G75*
G02*
X5452980Y-6032780I-15500J0D01*
G01*
X5452980Y-6032780D02*
G75*
G02*
X5483980Y-6032780I15500J0D01*
G01*
X5628900Y-4508500D02*
G75*
G02*
X5597900Y-4508500I-15500J0D01*
G01*
X5597900Y-4508500D02*
G75*
G02*
X5628900Y-4508500I15500J0D01*
G01*
X5633980Y-5732780D02*
G75*
G02*
X5602980Y-5732780I-15500J0D01*
G01*
X5602980Y-5732780D02*
G75*
G02*
X5633980Y-5732780I15500J0D01*
G01*
X5633980Y-5882780D02*
G75*
G02*
X5602980Y-5882780I-15500J0D01*
G01*
X5602980Y-5882780D02*
G75*
G02*
X5633980Y-5882780I15500J0D01*
G01*
X5633980Y-6032780D02*
G75*
G02*
X5602980Y-6032780I-15500J0D01*
G01*
X5602980Y-6032780D02*
G75*
G02*
X5633980Y-6032780I15500J0D01*
G01*
X5783980Y-5732780D02*
G75*
G02*
X5752980Y-5732780I-15500J0D01*
G01*
X5752980Y-5732780D02*
G75*
G02*
X5783980Y-5732780I15500J0D01*
G01*
X5783980Y-5882780D02*
G75*
G02*
X5752980Y-5882780I-15500J0D01*
G01*
X5752980Y-5882780D02*
G75*
G02*
X5783980Y-5882780I15500J0D01*
G01*
X5783980Y-6032780D02*
G75*
G02*
X5752980Y-6032780I-15500J0D01*
G01*
X5752980Y-6032780D02*
G75*
G02*
X5783980Y-6032780I15500J0D01*
G01*
X5829560Y-5285740D02*
G75*
G02*
X5798560Y-5285740I-15500J0D01*
G01*
X5798560Y-5285740D02*
G75*
G02*
X5829560Y-5285740I15500J0D01*
G01*
X5933980Y-5732780D02*
G75*
G02*
X5902980Y-5732780I-15500J0D01*
G01*
X5902980Y-5732780D02*
G75*
G02*
X5933980Y-5732780I15500J0D01*
G01*
X5933980Y-5882780D02*
G75*
G02*
X5902980Y-5882780I-15500J0D01*
G01*
X5902980Y-5882780D02*
G75*
G02*
X5933980Y-5882780I15500J0D01*
G01*
X5933980Y-6032780D02*
G75*
G02*
X5902980Y-6032780I-15500J0D01*
G01*
X5902980Y-6032780D02*
G75*
G02*
X5933980Y-6032780I15500J0D01*
G01*
X6147060Y-5293360D02*
G75*
G02*
X6116060Y-5293360I-15500J0D01*
G01*
X6116060Y-5293360D02*
G75*
G02*
X6147060Y-5293360I15500J0D01*
G01*
X6268980Y-4508500D02*
G75*
G02*
X6237980Y-4508500I-15500J0D01*
G01*
X6237980Y-4508500D02*
G75*
G02*
X6268980Y-4508500I15500J0D01*
G01*
X7155160Y-4122280D02*
G75*
G02*
X7124160Y-4122280I-15500J0D01*
G01*
X7124160Y-4122280D02*
G75*
G02*
X7155160Y-4122280I15500J0D01*
G01*
X7155160Y-4272280D02*
G75*
G02*
X7124160Y-4272280I-15500J0D01*
G01*
X7124160Y-4272280D02*
G75*
G02*
X7155160Y-4272280I15500J0D01*
G01*
X7155160Y-4422280D02*
G75*
G02*
X7124160Y-4422280I-15500J0D01*
G01*
X7124160Y-4422280D02*
G75*
G02*
X7155160Y-4422280I15500J0D01*
G01*
X7221480Y-6149340D02*
G75*
G02*
X7190480Y-6149340I-15500J0D01*
G01*
X7190480Y-6149340D02*
G75*
G02*
X7221480Y-6149340I15500J0D01*
G01*
X7221480Y-6299340D02*
G75*
G02*
X7190480Y-6299340I-15500J0D01*
G01*
X7190480Y-6299340D02*
G75*
G02*
X7221480Y-6299340I15500J0D01*
G01*
X7279900Y-5514340D02*
G75*
G02*
X7248900Y-5514340I-15500J0D01*
G01*
X7248900Y-5514340D02*
G75*
G02*
X7279900Y-5514340I15500J0D01*
G01*
X7305160Y-4122280D02*
G75*
G02*
X7274160Y-4122280I-15500J0D01*
G01*
X7274160Y-4122280D02*
G75*
G02*
X7305160Y-4122280I15500J0D01*
G01*
X7305160Y-4272280D02*
G75*
G02*
X7274160Y-4272280I-15500J0D01*
G01*
X7274160Y-4272280D02*
G75*
G02*
X7305160Y-4272280I15500J0D01*
G01*
X7305160Y-4422280D02*
G75*
G02*
X7274160Y-4422280I-15500J0D01*
G01*
X7274160Y-4422280D02*
G75*
G02*
X7305160Y-4422280I15500J0D01*
G01*
X7455160Y-4122280D02*
G75*
G02*
X7424160Y-4122280I-15500J0D01*
G01*
X7424160Y-4122280D02*
G75*
G02*
X7455160Y-4122280I15500J0D01*
G01*
X7455160Y-4272280D02*
G75*
G02*
X7424160Y-4272280I-15500J0D01*
G01*
X7424160Y-4272280D02*
G75*
G02*
X7455160Y-4272280I15500J0D01*
G01*
X7455160Y-4422280D02*
G75*
G02*
X7424160Y-4422280I-15500J0D01*
G01*
X7424160Y-4422280D02*
G75*
G02*
X7455160Y-4422280I15500J0D01*
G01*
X7605160Y-4122280D02*
G75*
G02*
X7574160Y-4122280I-15500J0D01*
G01*
X7574160Y-4122280D02*
G75*
G02*
X7605160Y-4122280I15500J0D01*
G01*
X7605160Y-4272280D02*
G75*
G02*
X7574160Y-4272280I-15500J0D01*
G01*
X7574160Y-4272280D02*
G75*
G02*
X7605160Y-4272280I15500J0D01*
G01*
X7605160Y-4422280D02*
G75*
G02*
X7574160Y-4422280I-15500J0D01*
G01*
X7574160Y-4422280D02*
G75*
G02*
X7605160Y-4422280I15500J0D01*
G01*
X7755160Y-4122280D02*
G75*
G02*
X7724160Y-4122280I-15500J0D01*
G01*
X7724160Y-4122280D02*
G75*
G02*
X7755160Y-4122280I15500J0D01*
G01*
X7755160Y-4272280D02*
G75*
G02*
X7724160Y-4272280I-15500J0D01*
G01*
X7724160Y-4272280D02*
G75*
G02*
X7755160Y-4272280I15500J0D01*
G01*
X7755160Y-4422280D02*
G75*
G02*
X7724160Y-4422280I-15500J0D01*
G01*
X7724160Y-4422280D02*
G75*
G02*
X7755160Y-4422280I15500J0D01*
G01*
X7823460Y-5371960D02*
G75*
G02*
X7792460Y-5371960I-15500J0D01*
G01*
X7792460Y-5371960D02*
G75*
G02*
X7823460Y-5371960I15500J0D01*
G01*
X7823460Y-5521960D02*
G75*
G02*
X7792460Y-5521960I-15500J0D01*
G01*
X7792460Y-5521960D02*
G75*
G02*
X7823460Y-5521960I15500J0D01*
G01*
X7823460Y-5671960D02*
G75*
G02*
X7792460Y-5671960I-15500J0D01*
G01*
X7792460Y-5671960D02*
G75*
G02*
X7823460Y-5671960I15500J0D01*
G01*
X5425440Y-4843500D02*
X5425440Y-4943500D01*
X5375440Y-4893500D02*
X5475440Y-4893500D01*
X5425440Y-5093500D02*
X5425440Y-5193500D01*
X5375440Y-5143500D02*
X5475440Y-5143500D01*
X6616160Y-3338840D02*
X6616160Y-3438840D01*
X6566160Y-3388840D02*
X6666160Y-3388840D01*
X6653720Y-6597180D02*
X6653720Y-6697180D01*
X6603720Y-6647180D02*
X6703720Y-6647180D01*
X6866160Y-3338840D02*
X6866160Y-3438840D01*
X6816160Y-3388840D02*
X6916160Y-3388840D01*
X6903720Y-6597180D02*
X6903720Y-6697180D01*
X6853720Y-6647180D02*
X6953720Y-6647180D01*
D13*
X5558898Y-6607918D02*
X5558898Y-6381642D01*
X5332622Y-6381642D01*
X5332622Y-6607918D01*
X5558898Y-6607918D01*
X7641698Y-3501498D02*
X7641698Y-3275222D01*
X7415422Y-3275222D01*
X7415422Y-3501498D01*
X7641698Y-3501498D01*
D11*
X5258277Y-7263984D02*
X5258277Y-7063984D01*
X5258277Y-7063984D02*
X5305896Y-7063984D01*
X5305896Y-7063984D02*
X5334467Y-7073508D01*
X5334467Y-7073508D02*
X5353515Y-7092555D01*
X5353515Y-7092555D02*
X5363039Y-7111603D01*
X5363039Y-7111603D02*
X5372563Y-7149698D01*
X5372563Y-7149698D02*
X5372563Y-7178269D01*
X5372563Y-7178269D02*
X5363039Y-7216365D01*
X5363039Y-7216365D02*
X5353515Y-7235412D01*
X5353515Y-7235412D02*
X5334467Y-7254460D01*
X5334467Y-7254460D02*
X5305896Y-7263984D01*
X5305896Y-7263984D02*
X5258277Y-7263984D01*
X5458277Y-7263984D02*
X5458277Y-7130650D01*
X5458277Y-7168746D02*
X5467801Y-7149698D01*
X5467801Y-7149698D02*
X5477324Y-7140174D01*
X5477324Y-7140174D02*
X5496372Y-7130650D01*
X5496372Y-7130650D02*
X5515420Y-7130650D01*
X5582086Y-7263984D02*
X5582086Y-7130650D01*
X5582086Y-7063984D02*
X5572563Y-7073508D01*
X5572563Y-7073508D02*
X5582086Y-7083031D01*
X5582086Y-7083031D02*
X5591610Y-7073508D01*
X5591610Y-7073508D02*
X5582086Y-7063984D01*
X5582086Y-7063984D02*
X5582086Y-7083031D01*
X5705896Y-7263984D02*
X5686848Y-7254460D01*
X5686848Y-7254460D02*
X5677324Y-7235412D01*
X5677324Y-7235412D02*
X5677324Y-7063984D01*
X5810658Y-7263984D02*
X5791610Y-7254460D01*
X5791610Y-7254460D02*
X5782086Y-7235412D01*
X5782086Y-7235412D02*
X5782086Y-7063984D01*
X6039229Y-7263984D02*
X6039229Y-7063984D01*
X6039229Y-7063984D02*
X6105896Y-7206841D01*
X6105896Y-7206841D02*
X6172562Y-7063984D01*
X6172562Y-7063984D02*
X6172562Y-7263984D01*
X6353515Y-7263984D02*
X6353515Y-7159222D01*
X6353515Y-7159222D02*
X6343991Y-7140174D01*
X6343991Y-7140174D02*
X6324943Y-7130650D01*
X6324943Y-7130650D02*
X6286848Y-7130650D01*
X6286848Y-7130650D02*
X6267801Y-7140174D01*
X6353515Y-7254460D02*
X6334467Y-7263984D01*
X6334467Y-7263984D02*
X6286848Y-7263984D01*
X6286848Y-7263984D02*
X6267801Y-7254460D01*
X6267801Y-7254460D02*
X6258277Y-7235412D01*
X6258277Y-7235412D02*
X6258277Y-7216365D01*
X6258277Y-7216365D02*
X6267801Y-7197317D01*
X6267801Y-7197317D02*
X6286848Y-7187793D01*
X6286848Y-7187793D02*
X6334467Y-7187793D01*
X6334467Y-7187793D02*
X6353515Y-7178269D01*
X6448753Y-7130650D02*
X6448753Y-7330650D01*
X6448753Y-7140174D02*
X6467801Y-7130650D01*
X6467801Y-7130650D02*
X6505896Y-7130650D01*
X6505896Y-7130650D02*
X6524943Y-7140174D01*
X6524943Y-7140174D02*
X6534467Y-7149698D01*
X6534467Y-7149698D02*
X6543991Y-7168746D01*
X6543991Y-7168746D02*
X6543991Y-7225888D01*
X6543991Y-7225888D02*
X6534467Y-7244936D01*
X6534467Y-7244936D02*
X6524943Y-7254460D01*
X6524943Y-7254460D02*
X6505896Y-7263984D01*
X6505896Y-7263984D02*
X6467801Y-7263984D01*
X6467801Y-7263984D02*
X6448753Y-7254460D01*
X6629705Y-7244936D02*
X6639229Y-7254460D01*
X6639229Y-7254460D02*
X6629705Y-7263984D01*
X6629705Y-7263984D02*
X6620182Y-7254460D01*
X6620182Y-7254460D02*
X6629705Y-7244936D01*
X6629705Y-7244936D02*
X6629705Y-7263984D01*
X6629705Y-7140174D02*
X6639229Y-7149698D01*
X6639229Y-7149698D02*
X6629705Y-7159222D01*
X6629705Y-7159222D02*
X6620182Y-7149698D01*
X6620182Y-7149698D02*
X6629705Y-7140174D01*
X6629705Y-7140174D02*
X6629705Y-7159222D01*
D12*
X4977500Y-7582500D02*
X4997500Y-7602500D01*
X4997500Y-7582500D02*
X4977500Y-7602500D01*
D11*
X5296372Y-7483984D02*
X5315420Y-7483984D01*
X5315420Y-7483984D02*
X5334467Y-7493508D01*
X5334467Y-7493508D02*
X5343991Y-7503031D01*
X5343991Y-7503031D02*
X5353515Y-7522079D01*
X5353515Y-7522079D02*
X5363039Y-7560174D01*
X5363039Y-7560174D02*
X5363039Y-7607793D01*
X5363039Y-7607793D02*
X5353515Y-7645888D01*
X5353515Y-7645888D02*
X5343991Y-7664936D01*
X5343991Y-7664936D02*
X5334467Y-7674460D01*
X5334467Y-7674460D02*
X5315420Y-7683984D01*
X5315420Y-7683984D02*
X5296372Y-7683984D01*
X5296372Y-7683984D02*
X5277324Y-7674460D01*
X5277324Y-7674460D02*
X5267801Y-7664936D01*
X5267801Y-7664936D02*
X5258277Y-7645888D01*
X5258277Y-7645888D02*
X5248753Y-7607793D01*
X5248753Y-7607793D02*
X5248753Y-7560174D01*
X5248753Y-7560174D02*
X5258277Y-7522079D01*
X5258277Y-7522079D02*
X5267801Y-7503031D01*
X5267801Y-7503031D02*
X5277324Y-7493508D01*
X5277324Y-7493508D02*
X5296372Y-7483984D01*
X5448753Y-7664936D02*
X5458277Y-7674460D01*
X5458277Y-7674460D02*
X5448753Y-7683984D01*
X5448753Y-7683984D02*
X5439229Y-7674460D01*
X5439229Y-7674460D02*
X5448753Y-7664936D01*
X5448753Y-7664936D02*
X5448753Y-7683984D01*
X5534467Y-7503031D02*
X5543991Y-7493508D01*
X5543991Y-7493508D02*
X5563039Y-7483984D01*
X5563039Y-7483984D02*
X5610658Y-7483984D01*
X5610658Y-7483984D02*
X5629705Y-7493508D01*
X5629705Y-7493508D02*
X5639229Y-7503031D01*
X5639229Y-7503031D02*
X5648753Y-7522079D01*
X5648753Y-7522079D02*
X5648753Y-7541127D01*
X5648753Y-7541127D02*
X5639229Y-7569698D01*
X5639229Y-7569698D02*
X5524944Y-7683984D01*
X5524944Y-7683984D02*
X5648753Y-7683984D01*
X5772562Y-7483984D02*
X5791610Y-7483984D01*
X5791610Y-7483984D02*
X5810658Y-7493508D01*
X5810658Y-7493508D02*
X5820182Y-7503031D01*
X5820182Y-7503031D02*
X5829705Y-7522079D01*
X5829705Y-7522079D02*
X5839229Y-7560174D01*
X5839229Y-7560174D02*
X5839229Y-7607793D01*
X5839229Y-7607793D02*
X5829705Y-7645888D01*
X5829705Y-7645888D02*
X5820182Y-7664936D01*
X5820182Y-7664936D02*
X5810658Y-7674460D01*
X5810658Y-7674460D02*
X5791610Y-7683984D01*
X5791610Y-7683984D02*
X5772562Y-7683984D01*
X5772562Y-7683984D02*
X5753515Y-7674460D01*
X5753515Y-7674460D02*
X5743991Y-7664936D01*
X5743991Y-7664936D02*
X5734467Y-7645888D01*
X5734467Y-7645888D02*
X5724943Y-7607793D01*
X5724943Y-7607793D02*
X5724943Y-7560174D01*
X5724943Y-7560174D02*
X5734467Y-7522079D01*
X5734467Y-7522079D02*
X5743991Y-7503031D01*
X5743991Y-7503031D02*
X5753515Y-7493508D01*
X5753515Y-7493508D02*
X5772562Y-7483984D01*
X5963039Y-7483984D02*
X5982086Y-7483984D01*
X5982086Y-7483984D02*
X6001134Y-7493508D01*
X6001134Y-7493508D02*
X6010658Y-7503031D01*
X6010658Y-7503031D02*
X6020182Y-7522079D01*
X6020182Y-7522079D02*
X6029705Y-7560174D01*
X6029705Y-7560174D02*
X6029705Y-7607793D01*
X6029705Y-7607793D02*
X6020182Y-7645888D01*
X6020182Y-7645888D02*
X6010658Y-7664936D01*
X6010658Y-7664936D02*
X6001134Y-7674460D01*
X6001134Y-7674460D02*
X5982086Y-7683984D01*
X5982086Y-7683984D02*
X5963039Y-7683984D01*
X5963039Y-7683984D02*
X5943991Y-7674460D01*
X5943991Y-7674460D02*
X5934467Y-7664936D01*
X5934467Y-7664936D02*
X5924943Y-7645888D01*
X5924943Y-7645888D02*
X5915420Y-7607793D01*
X5915420Y-7607793D02*
X5915420Y-7560174D01*
X5915420Y-7560174D02*
X5924943Y-7522079D01*
X5924943Y-7522079D02*
X5934467Y-7503031D01*
X5934467Y-7503031D02*
X5943991Y-7493508D01*
X5943991Y-7493508D02*
X5963039Y-7483984D01*
X6115420Y-7683984D02*
X6115420Y-7550650D01*
X6115420Y-7569698D02*
X6124943Y-7560174D01*
X6124943Y-7560174D02*
X6143991Y-7550650D01*
X6143991Y-7550650D02*
X6172563Y-7550650D01*
X6172563Y-7550650D02*
X6191610Y-7560174D01*
X6191610Y-7560174D02*
X6201134Y-7579222D01*
X6201134Y-7579222D02*
X6201134Y-7683984D01*
X6201134Y-7579222D02*
X6210658Y-7560174D01*
X6210658Y-7560174D02*
X6229705Y-7550650D01*
X6229705Y-7550650D02*
X6258277Y-7550650D01*
X6258277Y-7550650D02*
X6277324Y-7560174D01*
X6277324Y-7560174D02*
X6286848Y-7579222D01*
X6286848Y-7579222D02*
X6286848Y-7683984D01*
X6382086Y-7683984D02*
X6382086Y-7550650D01*
X6382086Y-7569698D02*
X6391610Y-7560174D01*
X6391610Y-7560174D02*
X6410658Y-7550650D01*
X6410658Y-7550650D02*
X6439229Y-7550650D01*
X6439229Y-7550650D02*
X6458277Y-7560174D01*
X6458277Y-7560174D02*
X6467801Y-7579222D01*
X6467801Y-7579222D02*
X6467801Y-7683984D01*
X6467801Y-7579222D02*
X6477324Y-7560174D01*
X6477324Y-7560174D02*
X6496372Y-7550650D01*
X6496372Y-7550650D02*
X6524943Y-7550650D01*
X6524943Y-7550650D02*
X6543991Y-7560174D01*
X6543991Y-7560174D02*
X6553515Y-7579222D01*
X6553515Y-7579222D02*
X6553515Y-7683984D01*
X6943991Y-7474460D02*
X6772563Y-7731603D01*
X7201134Y-7483984D02*
X7220182Y-7483984D01*
X7220182Y-7483984D02*
X7239229Y-7493508D01*
X7239229Y-7493508D02*
X7248753Y-7503031D01*
X7248753Y-7503031D02*
X7258277Y-7522079D01*
X7258277Y-7522079D02*
X7267801Y-7560174D01*
X7267801Y-7560174D02*
X7267801Y-7607793D01*
X7267801Y-7607793D02*
X7258277Y-7645888D01*
X7258277Y-7645888D02*
X7248753Y-7664936D01*
X7248753Y-7664936D02*
X7239229Y-7674460D01*
X7239229Y-7674460D02*
X7220182Y-7683984D01*
X7220182Y-7683984D02*
X7201134Y-7683984D01*
X7201134Y-7683984D02*
X7182086Y-7674460D01*
X7182086Y-7674460D02*
X7172563Y-7664936D01*
X7172563Y-7664936D02*
X7163039Y-7645888D01*
X7163039Y-7645888D02*
X7153515Y-7607793D01*
X7153515Y-7607793D02*
X7153515Y-7560174D01*
X7153515Y-7560174D02*
X7163039Y-7522079D01*
X7163039Y-7522079D02*
X7172563Y-7503031D01*
X7172563Y-7503031D02*
X7182086Y-7493508D01*
X7182086Y-7493508D02*
X7201134Y-7483984D01*
X7353515Y-7664936D02*
X7363039Y-7674460D01*
X7363039Y-7674460D02*
X7353515Y-7683984D01*
X7353515Y-7683984D02*
X7343991Y-7674460D01*
X7343991Y-7674460D02*
X7353515Y-7664936D01*
X7353515Y-7664936D02*
X7353515Y-7683984D01*
X7486848Y-7483984D02*
X7505896Y-7483984D01*
X7505896Y-7483984D02*
X7524944Y-7493508D01*
X7524944Y-7493508D02*
X7534467Y-7503031D01*
X7534467Y-7503031D02*
X7543991Y-7522079D01*
X7543991Y-7522079D02*
X7553515Y-7560174D01*
X7553515Y-7560174D02*
X7553515Y-7607793D01*
X7553515Y-7607793D02*
X7543991Y-7645888D01*
X7543991Y-7645888D02*
X7534467Y-7664936D01*
X7534467Y-7664936D02*
X7524944Y-7674460D01*
X7524944Y-7674460D02*
X7505896Y-7683984D01*
X7505896Y-7683984D02*
X7486848Y-7683984D01*
X7486848Y-7683984D02*
X7467801Y-7674460D01*
X7467801Y-7674460D02*
X7458277Y-7664936D01*
X7458277Y-7664936D02*
X7448753Y-7645888D01*
X7448753Y-7645888D02*
X7439229Y-7607793D01*
X7439229Y-7607793D02*
X7439229Y-7560174D01*
X7439229Y-7560174D02*
X7448753Y-7522079D01*
X7448753Y-7522079D02*
X7458277Y-7503031D01*
X7458277Y-7503031D02*
X7467801Y-7493508D01*
X7467801Y-7493508D02*
X7486848Y-7483984D01*
X7677325Y-7483984D02*
X7696372Y-7483984D01*
X7696372Y-7483984D02*
X7715420Y-7493508D01*
X7715420Y-7493508D02*
X7724944Y-7503031D01*
X7724944Y-7503031D02*
X7734467Y-7522079D01*
X7734467Y-7522079D02*
X7743991Y-7560174D01*
X7743991Y-7560174D02*
X7743991Y-7607793D01*
X7743991Y-7607793D02*
X7734467Y-7645888D01*
X7734467Y-7645888D02*
X7724944Y-7664936D01*
X7724944Y-7664936D02*
X7715420Y-7674460D01*
X7715420Y-7674460D02*
X7696372Y-7683984D01*
X7696372Y-7683984D02*
X7677325Y-7683984D01*
X7677325Y-7683984D02*
X7658277Y-7674460D01*
X7658277Y-7674460D02*
X7648753Y-7664936D01*
X7648753Y-7664936D02*
X7639229Y-7645888D01*
X7639229Y-7645888D02*
X7629706Y-7607793D01*
X7629706Y-7607793D02*
X7629706Y-7560174D01*
X7629706Y-7560174D02*
X7639229Y-7522079D01*
X7639229Y-7522079D02*
X7648753Y-7503031D01*
X7648753Y-7503031D02*
X7658277Y-7493508D01*
X7658277Y-7493508D02*
X7677325Y-7483984D01*
X7810658Y-7483984D02*
X7943991Y-7483984D01*
X7943991Y-7483984D02*
X7858277Y-7683984D01*
X8029706Y-7683984D02*
X8067801Y-7683984D01*
X8067801Y-7683984D02*
X8086848Y-7674460D01*
X8086848Y-7674460D02*
X8096372Y-7664936D01*
X8096372Y-7664936D02*
X8115420Y-7636365D01*
X8115420Y-7636365D02*
X8124944Y-7598269D01*
X8124944Y-7598269D02*
X8124944Y-7522079D01*
X8124944Y-7522079D02*
X8115420Y-7503031D01*
X8115420Y-7503031D02*
X8105896Y-7493508D01*
X8105896Y-7493508D02*
X8086848Y-7483984D01*
X8086848Y-7483984D02*
X8048753Y-7483984D01*
X8048753Y-7483984D02*
X8029706Y-7493508D01*
X8029706Y-7493508D02*
X8020182Y-7503031D01*
X8020182Y-7503031D02*
X8010658Y-7522079D01*
X8010658Y-7522079D02*
X8010658Y-7569698D01*
X8010658Y-7569698D02*
X8020182Y-7588746D01*
X8020182Y-7588746D02*
X8029706Y-7598269D01*
X8029706Y-7598269D02*
X8048753Y-7607793D01*
X8048753Y-7607793D02*
X8086848Y-7607793D01*
X8086848Y-7607793D02*
X8105896Y-7598269D01*
X8105896Y-7598269D02*
X8115420Y-7588746D01*
X8115420Y-7588746D02*
X8124944Y-7569698D01*
X8201134Y-7483984D02*
X8201134Y-7522079D01*
X8277325Y-7483984D02*
X8277325Y-7522079D01*
X8572563Y-7760174D02*
X8563039Y-7750650D01*
X8563039Y-7750650D02*
X8543991Y-7722079D01*
X8543991Y-7722079D02*
X8534468Y-7703031D01*
X8534468Y-7703031D02*
X8524944Y-7674460D01*
X8524944Y-7674460D02*
X8515420Y-7626841D01*
X8515420Y-7626841D02*
X8515420Y-7588746D01*
X8515420Y-7588746D02*
X8524944Y-7541127D01*
X8524944Y-7541127D02*
X8534468Y-7512555D01*
X8534468Y-7512555D02*
X8543991Y-7493508D01*
X8543991Y-7493508D02*
X8563039Y-7464936D01*
X8563039Y-7464936D02*
X8572563Y-7455412D01*
X8734468Y-7483984D02*
X8696372Y-7483984D01*
X8696372Y-7483984D02*
X8677325Y-7493508D01*
X8677325Y-7493508D02*
X8667801Y-7503031D01*
X8667801Y-7503031D02*
X8648753Y-7531603D01*
X8648753Y-7531603D02*
X8639230Y-7569698D01*
X8639230Y-7569698D02*
X8639230Y-7645888D01*
X8639230Y-7645888D02*
X8648753Y-7664936D01*
X8648753Y-7664936D02*
X8658277Y-7674460D01*
X8658277Y-7674460D02*
X8677325Y-7683984D01*
X8677325Y-7683984D02*
X8715420Y-7683984D01*
X8715420Y-7683984D02*
X8734468Y-7674460D01*
X8734468Y-7674460D02*
X8743991Y-7664936D01*
X8743991Y-7664936D02*
X8753515Y-7645888D01*
X8753515Y-7645888D02*
X8753515Y-7598269D01*
X8753515Y-7598269D02*
X8743991Y-7579222D01*
X8743991Y-7579222D02*
X8734468Y-7569698D01*
X8734468Y-7569698D02*
X8715420Y-7560174D01*
X8715420Y-7560174D02*
X8677325Y-7560174D01*
X8677325Y-7560174D02*
X8658277Y-7569698D01*
X8658277Y-7569698D02*
X8648753Y-7579222D01*
X8648753Y-7579222D02*
X8639230Y-7598269D01*
X8991611Y-7683984D02*
X8991611Y-7483984D01*
X9077325Y-7683984D02*
X9077325Y-7579222D01*
X9077325Y-7579222D02*
X9067801Y-7560174D01*
X9067801Y-7560174D02*
X9048753Y-7550650D01*
X9048753Y-7550650D02*
X9020182Y-7550650D01*
X9020182Y-7550650D02*
X9001134Y-7560174D01*
X9001134Y-7560174D02*
X8991611Y-7569698D01*
X9201134Y-7683984D02*
X9182087Y-7674460D01*
X9182087Y-7674460D02*
X9172563Y-7664936D01*
X9172563Y-7664936D02*
X9163039Y-7645888D01*
X9163039Y-7645888D02*
X9163039Y-7588746D01*
X9163039Y-7588746D02*
X9172563Y-7569698D01*
X9172563Y-7569698D02*
X9182087Y-7560174D01*
X9182087Y-7560174D02*
X9201134Y-7550650D01*
X9201134Y-7550650D02*
X9229706Y-7550650D01*
X9229706Y-7550650D02*
X9248753Y-7560174D01*
X9248753Y-7560174D02*
X9258277Y-7569698D01*
X9258277Y-7569698D02*
X9267801Y-7588746D01*
X9267801Y-7588746D02*
X9267801Y-7645888D01*
X9267801Y-7645888D02*
X9258277Y-7664936D01*
X9258277Y-7664936D02*
X9248753Y-7674460D01*
X9248753Y-7674460D02*
X9229706Y-7683984D01*
X9229706Y-7683984D02*
X9201134Y-7683984D01*
X9382087Y-7683984D02*
X9363039Y-7674460D01*
X9363039Y-7674460D02*
X9353515Y-7655412D01*
X9353515Y-7655412D02*
X9353515Y-7483984D01*
X9534468Y-7674460D02*
X9515420Y-7683984D01*
X9515420Y-7683984D02*
X9477325Y-7683984D01*
X9477325Y-7683984D02*
X9458277Y-7674460D01*
X9458277Y-7674460D02*
X9448753Y-7655412D01*
X9448753Y-7655412D02*
X9448753Y-7579222D01*
X9448753Y-7579222D02*
X9458277Y-7560174D01*
X9458277Y-7560174D02*
X9477325Y-7550650D01*
X9477325Y-7550650D02*
X9515420Y-7550650D01*
X9515420Y-7550650D02*
X9534468Y-7560174D01*
X9534468Y-7560174D02*
X9543992Y-7579222D01*
X9543992Y-7579222D02*
X9543992Y-7598269D01*
X9543992Y-7598269D02*
X9448753Y-7617317D01*
X9620182Y-7674460D02*
X9639230Y-7683984D01*
X9639230Y-7683984D02*
X9677325Y-7683984D01*
X9677325Y-7683984D02*
X9696373Y-7674460D01*
X9696373Y-7674460D02*
X9705896Y-7655412D01*
X9705896Y-7655412D02*
X9705896Y-7645888D01*
X9705896Y-7645888D02*
X9696373Y-7626841D01*
X9696373Y-7626841D02*
X9677325Y-7617317D01*
X9677325Y-7617317D02*
X9648753Y-7617317D01*
X9648753Y-7617317D02*
X9629706Y-7607793D01*
X9629706Y-7607793D02*
X9620182Y-7588746D01*
X9620182Y-7588746D02*
X9620182Y-7579222D01*
X9620182Y-7579222D02*
X9629706Y-7560174D01*
X9629706Y-7560174D02*
X9648753Y-7550650D01*
X9648753Y-7550650D02*
X9677325Y-7550650D01*
X9677325Y-7550650D02*
X9696373Y-7560174D01*
X9772563Y-7760174D02*
X9782087Y-7750650D01*
X9782087Y-7750650D02*
X9801134Y-7722079D01*
X9801134Y-7722079D02*
X9810658Y-7703031D01*
X9810658Y-7703031D02*
X9820182Y-7674460D01*
X9820182Y-7674460D02*
X9829706Y-7626841D01*
X9829706Y-7626841D02*
X9829706Y-7588746D01*
X9829706Y-7588746D02*
X9820182Y-7541127D01*
X9820182Y-7541127D02*
X9810658Y-7512555D01*
X9810658Y-7512555D02*
X9801134Y-7493508D01*
X9801134Y-7493508D02*
X9782087Y-7464936D01*
X9782087Y-7464936D02*
X9772563Y-7455412D01*
D12*
X4997500Y-7856500D02*
G75*
G02*
X4966500Y-7856500I-15500J0D01*
G01*
X4966500Y-7856500D02*
G75*
G02*
X4997500Y-7856500I15500J0D01*
G01*
D11*
X5296372Y-7747984D02*
X5315420Y-7747984D01*
X5315420Y-7747984D02*
X5334467Y-7757508D01*
X5334467Y-7757508D02*
X5343991Y-7767031D01*
X5343991Y-7767031D02*
X5353515Y-7786079D01*
X5353515Y-7786079D02*
X5363039Y-7824174D01*
X5363039Y-7824174D02*
X5363039Y-7871793D01*
X5363039Y-7871793D02*
X5353515Y-7909888D01*
X5353515Y-7909888D02*
X5343991Y-7928936D01*
X5343991Y-7928936D02*
X5334467Y-7938460D01*
X5334467Y-7938460D02*
X5315420Y-7947984D01*
X5315420Y-7947984D02*
X5296372Y-7947984D01*
X5296372Y-7947984D02*
X5277324Y-7938460D01*
X5277324Y-7938460D02*
X5267801Y-7928936D01*
X5267801Y-7928936D02*
X5258277Y-7909888D01*
X5258277Y-7909888D02*
X5248753Y-7871793D01*
X5248753Y-7871793D02*
X5248753Y-7824174D01*
X5248753Y-7824174D02*
X5258277Y-7786079D01*
X5258277Y-7786079D02*
X5267801Y-7767031D01*
X5267801Y-7767031D02*
X5277324Y-7757508D01*
X5277324Y-7757508D02*
X5296372Y-7747984D01*
X5448753Y-7928936D02*
X5458277Y-7938460D01*
X5458277Y-7938460D02*
X5448753Y-7947984D01*
X5448753Y-7947984D02*
X5439229Y-7938460D01*
X5439229Y-7938460D02*
X5448753Y-7928936D01*
X5448753Y-7928936D02*
X5448753Y-7947984D01*
X5524944Y-7747984D02*
X5648753Y-7747984D01*
X5648753Y-7747984D02*
X5582086Y-7824174D01*
X5582086Y-7824174D02*
X5610658Y-7824174D01*
X5610658Y-7824174D02*
X5629705Y-7833698D01*
X5629705Y-7833698D02*
X5639229Y-7843222D01*
X5639229Y-7843222D02*
X5648753Y-7862269D01*
X5648753Y-7862269D02*
X5648753Y-7909888D01*
X5648753Y-7909888D02*
X5639229Y-7928936D01*
X5639229Y-7928936D02*
X5629705Y-7938460D01*
X5629705Y-7938460D02*
X5610658Y-7947984D01*
X5610658Y-7947984D02*
X5553515Y-7947984D01*
X5553515Y-7947984D02*
X5534467Y-7938460D01*
X5534467Y-7938460D02*
X5524944Y-7928936D01*
X5839229Y-7947984D02*
X5724943Y-7947984D01*
X5782086Y-7947984D02*
X5782086Y-7747984D01*
X5782086Y-7747984D02*
X5763039Y-7776555D01*
X5763039Y-7776555D02*
X5743991Y-7795603D01*
X5743991Y-7795603D02*
X5724943Y-7805127D01*
X5963039Y-7747984D02*
X5982086Y-7747984D01*
X5982086Y-7747984D02*
X6001134Y-7757508D01*
X6001134Y-7757508D02*
X6010658Y-7767031D01*
X6010658Y-7767031D02*
X6020182Y-7786079D01*
X6020182Y-7786079D02*
X6029705Y-7824174D01*
X6029705Y-7824174D02*
X6029705Y-7871793D01*
X6029705Y-7871793D02*
X6020182Y-7909888D01*
X6020182Y-7909888D02*
X6010658Y-7928936D01*
X6010658Y-7928936D02*
X6001134Y-7938460D01*
X6001134Y-7938460D02*
X5982086Y-7947984D01*
X5982086Y-7947984D02*
X5963039Y-7947984D01*
X5963039Y-7947984D02*
X5943991Y-7938460D01*
X5943991Y-7938460D02*
X5934467Y-7928936D01*
X5934467Y-7928936D02*
X5924943Y-7909888D01*
X5924943Y-7909888D02*
X5915420Y-7871793D01*
X5915420Y-7871793D02*
X5915420Y-7824174D01*
X5915420Y-7824174D02*
X5924943Y-7786079D01*
X5924943Y-7786079D02*
X5934467Y-7767031D01*
X5934467Y-7767031D02*
X5943991Y-7757508D01*
X5943991Y-7757508D02*
X5963039Y-7747984D01*
X6115420Y-7947984D02*
X6115420Y-7814650D01*
X6115420Y-7833698D02*
X6124943Y-7824174D01*
X6124943Y-7824174D02*
X6143991Y-7814650D01*
X6143991Y-7814650D02*
X6172563Y-7814650D01*
X6172563Y-7814650D02*
X6191610Y-7824174D01*
X6191610Y-7824174D02*
X6201134Y-7843222D01*
X6201134Y-7843222D02*
X6201134Y-7947984D01*
X6201134Y-7843222D02*
X6210658Y-7824174D01*
X6210658Y-7824174D02*
X6229705Y-7814650D01*
X6229705Y-7814650D02*
X6258277Y-7814650D01*
X6258277Y-7814650D02*
X6277324Y-7824174D01*
X6277324Y-7824174D02*
X6286848Y-7843222D01*
X6286848Y-7843222D02*
X6286848Y-7947984D01*
X6382086Y-7947984D02*
X6382086Y-7814650D01*
X6382086Y-7833698D02*
X6391610Y-7824174D01*
X6391610Y-7824174D02*
X6410658Y-7814650D01*
X6410658Y-7814650D02*
X6439229Y-7814650D01*
X6439229Y-7814650D02*
X6458277Y-7824174D01*
X6458277Y-7824174D02*
X6467801Y-7843222D01*
X6467801Y-7843222D02*
X6467801Y-7947984D01*
X6467801Y-7843222D02*
X6477324Y-7824174D01*
X6477324Y-7824174D02*
X6496372Y-7814650D01*
X6496372Y-7814650D02*
X6524943Y-7814650D01*
X6524943Y-7814650D02*
X6543991Y-7824174D01*
X6543991Y-7824174D02*
X6553515Y-7843222D01*
X6553515Y-7843222D02*
X6553515Y-7947984D01*
X6943991Y-7738460D02*
X6772563Y-7995603D01*
X7201134Y-7747984D02*
X7220182Y-7747984D01*
X7220182Y-7747984D02*
X7239229Y-7757508D01*
X7239229Y-7757508D02*
X7248753Y-7767031D01*
X7248753Y-7767031D02*
X7258277Y-7786079D01*
X7258277Y-7786079D02*
X7267801Y-7824174D01*
X7267801Y-7824174D02*
X7267801Y-7871793D01*
X7267801Y-7871793D02*
X7258277Y-7909888D01*
X7258277Y-7909888D02*
X7248753Y-7928936D01*
X7248753Y-7928936D02*
X7239229Y-7938460D01*
X7239229Y-7938460D02*
X7220182Y-7947984D01*
X7220182Y-7947984D02*
X7201134Y-7947984D01*
X7201134Y-7947984D02*
X7182086Y-7938460D01*
X7182086Y-7938460D02*
X7172563Y-7928936D01*
X7172563Y-7928936D02*
X7163039Y-7909888D01*
X7163039Y-7909888D02*
X7153515Y-7871793D01*
X7153515Y-7871793D02*
X7153515Y-7824174D01*
X7153515Y-7824174D02*
X7163039Y-7786079D01*
X7163039Y-7786079D02*
X7172563Y-7767031D01*
X7172563Y-7767031D02*
X7182086Y-7757508D01*
X7182086Y-7757508D02*
X7201134Y-7747984D01*
X7353515Y-7928936D02*
X7363039Y-7938460D01*
X7363039Y-7938460D02*
X7353515Y-7947984D01*
X7353515Y-7947984D02*
X7343991Y-7938460D01*
X7343991Y-7938460D02*
X7353515Y-7928936D01*
X7353515Y-7928936D02*
X7353515Y-7947984D01*
X7486848Y-7747984D02*
X7505896Y-7747984D01*
X7505896Y-7747984D02*
X7524944Y-7757508D01*
X7524944Y-7757508D02*
X7534467Y-7767031D01*
X7534467Y-7767031D02*
X7543991Y-7786079D01*
X7543991Y-7786079D02*
X7553515Y-7824174D01*
X7553515Y-7824174D02*
X7553515Y-7871793D01*
X7553515Y-7871793D02*
X7543991Y-7909888D01*
X7543991Y-7909888D02*
X7534467Y-7928936D01*
X7534467Y-7928936D02*
X7524944Y-7938460D01*
X7524944Y-7938460D02*
X7505896Y-7947984D01*
X7505896Y-7947984D02*
X7486848Y-7947984D01*
X7486848Y-7947984D02*
X7467801Y-7938460D01*
X7467801Y-7938460D02*
X7458277Y-7928936D01*
X7458277Y-7928936D02*
X7448753Y-7909888D01*
X7448753Y-7909888D02*
X7439229Y-7871793D01*
X7439229Y-7871793D02*
X7439229Y-7824174D01*
X7439229Y-7824174D02*
X7448753Y-7786079D01*
X7448753Y-7786079D02*
X7458277Y-7767031D01*
X7458277Y-7767031D02*
X7467801Y-7757508D01*
X7467801Y-7757508D02*
X7486848Y-7747984D01*
X7743991Y-7947984D02*
X7629706Y-7947984D01*
X7686848Y-7947984D02*
X7686848Y-7747984D01*
X7686848Y-7747984D02*
X7667801Y-7776555D01*
X7667801Y-7776555D02*
X7648753Y-7795603D01*
X7648753Y-7795603D02*
X7629706Y-7805127D01*
X7820182Y-7767031D02*
X7829706Y-7757508D01*
X7829706Y-7757508D02*
X7848753Y-7747984D01*
X7848753Y-7747984D02*
X7896372Y-7747984D01*
X7896372Y-7747984D02*
X7915420Y-7757508D01*
X7915420Y-7757508D02*
X7924944Y-7767031D01*
X7924944Y-7767031D02*
X7934467Y-7786079D01*
X7934467Y-7786079D02*
X7934467Y-7805127D01*
X7934467Y-7805127D02*
X7924944Y-7833698D01*
X7924944Y-7833698D02*
X7810658Y-7947984D01*
X7810658Y-7947984D02*
X7934467Y-7947984D01*
X8010658Y-7767031D02*
X8020182Y-7757508D01*
X8020182Y-7757508D02*
X8039229Y-7747984D01*
X8039229Y-7747984D02*
X8086848Y-7747984D01*
X8086848Y-7747984D02*
X8105896Y-7757508D01*
X8105896Y-7757508D02*
X8115420Y-7767031D01*
X8115420Y-7767031D02*
X8124944Y-7786079D01*
X8124944Y-7786079D02*
X8124944Y-7805127D01*
X8124944Y-7805127D02*
X8115420Y-7833698D01*
X8115420Y-7833698D02*
X8001134Y-7947984D01*
X8001134Y-7947984D02*
X8124944Y-7947984D01*
X8201134Y-7747984D02*
X8201134Y-7786079D01*
X8277325Y-7747984D02*
X8277325Y-7786079D01*
X8572563Y-8024174D02*
X8563039Y-8014650D01*
X8563039Y-8014650D02*
X8543991Y-7986079D01*
X8543991Y-7986079D02*
X8534468Y-7967031D01*
X8534468Y-7967031D02*
X8524944Y-7938460D01*
X8524944Y-7938460D02*
X8515420Y-7890841D01*
X8515420Y-7890841D02*
X8515420Y-7852746D01*
X8515420Y-7852746D02*
X8524944Y-7805127D01*
X8524944Y-7805127D02*
X8534468Y-7776555D01*
X8534468Y-7776555D02*
X8543991Y-7757508D01*
X8543991Y-7757508D02*
X8563039Y-7728936D01*
X8563039Y-7728936D02*
X8572563Y-7719412D01*
X8734468Y-7814650D02*
X8734468Y-7947984D01*
X8686849Y-7738460D02*
X8639230Y-7881317D01*
X8639230Y-7881317D02*
X8763039Y-7881317D01*
X8877325Y-7747984D02*
X8896372Y-7747984D01*
X8896372Y-7747984D02*
X8915420Y-7757508D01*
X8915420Y-7757508D02*
X8924944Y-7767031D01*
X8924944Y-7767031D02*
X8934468Y-7786079D01*
X8934468Y-7786079D02*
X8943991Y-7824174D01*
X8943991Y-7824174D02*
X8943991Y-7871793D01*
X8943991Y-7871793D02*
X8934468Y-7909888D01*
X8934468Y-7909888D02*
X8924944Y-7928936D01*
X8924944Y-7928936D02*
X8915420Y-7938460D01*
X8915420Y-7938460D02*
X8896372Y-7947984D01*
X8896372Y-7947984D02*
X8877325Y-7947984D01*
X8877325Y-7947984D02*
X8858277Y-7938460D01*
X8858277Y-7938460D02*
X8848753Y-7928936D01*
X8848753Y-7928936D02*
X8839230Y-7909888D01*
X8839230Y-7909888D02*
X8829706Y-7871793D01*
X8829706Y-7871793D02*
X8829706Y-7824174D01*
X8829706Y-7824174D02*
X8839230Y-7786079D01*
X8839230Y-7786079D02*
X8848753Y-7767031D01*
X8848753Y-7767031D02*
X8858277Y-7757508D01*
X8858277Y-7757508D02*
X8877325Y-7747984D01*
X9182087Y-7947984D02*
X9182087Y-7747984D01*
X9267801Y-7947984D02*
X9267801Y-7843222D01*
X9267801Y-7843222D02*
X9258277Y-7824174D01*
X9258277Y-7824174D02*
X9239230Y-7814650D01*
X9239230Y-7814650D02*
X9210658Y-7814650D01*
X9210658Y-7814650D02*
X9191611Y-7824174D01*
X9191611Y-7824174D02*
X9182087Y-7833698D01*
X9391611Y-7947984D02*
X9372563Y-7938460D01*
X9372563Y-7938460D02*
X9363039Y-7928936D01*
X9363039Y-7928936D02*
X9353515Y-7909888D01*
X9353515Y-7909888D02*
X9353515Y-7852746D01*
X9353515Y-7852746D02*
X9363039Y-7833698D01*
X9363039Y-7833698D02*
X9372563Y-7824174D01*
X9372563Y-7824174D02*
X9391611Y-7814650D01*
X9391611Y-7814650D02*
X9420182Y-7814650D01*
X9420182Y-7814650D02*
X9439230Y-7824174D01*
X9439230Y-7824174D02*
X9448753Y-7833698D01*
X9448753Y-7833698D02*
X9458277Y-7852746D01*
X9458277Y-7852746D02*
X9458277Y-7909888D01*
X9458277Y-7909888D02*
X9448753Y-7928936D01*
X9448753Y-7928936D02*
X9439230Y-7938460D01*
X9439230Y-7938460D02*
X9420182Y-7947984D01*
X9420182Y-7947984D02*
X9391611Y-7947984D01*
X9572563Y-7947984D02*
X9553515Y-7938460D01*
X9553515Y-7938460D02*
X9543992Y-7919412D01*
X9543992Y-7919412D02*
X9543992Y-7747984D01*
X9724944Y-7938460D02*
X9705896Y-7947984D01*
X9705896Y-7947984D02*
X9667801Y-7947984D01*
X9667801Y-7947984D02*
X9648753Y-7938460D01*
X9648753Y-7938460D02*
X9639230Y-7919412D01*
X9639230Y-7919412D02*
X9639230Y-7843222D01*
X9639230Y-7843222D02*
X9648753Y-7824174D01*
X9648753Y-7824174D02*
X9667801Y-7814650D01*
X9667801Y-7814650D02*
X9705896Y-7814650D01*
X9705896Y-7814650D02*
X9724944Y-7824174D01*
X9724944Y-7824174D02*
X9734468Y-7843222D01*
X9734468Y-7843222D02*
X9734468Y-7862269D01*
X9734468Y-7862269D02*
X9639230Y-7881317D01*
X9810658Y-7938460D02*
X9829706Y-7947984D01*
X9829706Y-7947984D02*
X9867801Y-7947984D01*
X9867801Y-7947984D02*
X9886849Y-7938460D01*
X9886849Y-7938460D02*
X9896373Y-7919412D01*
X9896373Y-7919412D02*
X9896373Y-7909888D01*
X9896373Y-7909888D02*
X9886849Y-7890841D01*
X9886849Y-7890841D02*
X9867801Y-7881317D01*
X9867801Y-7881317D02*
X9839230Y-7881317D01*
X9839230Y-7881317D02*
X9820182Y-7871793D01*
X9820182Y-7871793D02*
X9810658Y-7852746D01*
X9810658Y-7852746D02*
X9810658Y-7843222D01*
X9810658Y-7843222D02*
X9820182Y-7824174D01*
X9820182Y-7824174D02*
X9839230Y-7814650D01*
X9839230Y-7814650D02*
X9867801Y-7814650D01*
X9867801Y-7814650D02*
X9886849Y-7824174D01*
X9963039Y-8024174D02*
X9972563Y-8014650D01*
X9972563Y-8014650D02*
X9991611Y-7986079D01*
X9991611Y-7986079D02*
X10001134Y-7967031D01*
X10001134Y-7967031D02*
X10010658Y-7938460D01*
X10010658Y-7938460D02*
X10020182Y-7890841D01*
X10020182Y-7890841D02*
X10020182Y-7852746D01*
X10020182Y-7852746D02*
X10010658Y-7805127D01*
X10010658Y-7805127D02*
X10001134Y-7776555D01*
X10001134Y-7776555D02*
X9991611Y-7757508D01*
X9991611Y-7757508D02*
X9972563Y-7728936D01*
X9972563Y-7728936D02*
X9963039Y-7719412D01*
D12*
X4947500Y-8070500D02*
X4947500Y-8170500D01*
X4897500Y-8120500D02*
X4997500Y-8120500D01*
D11*
X5363039Y-8211984D02*
X5248753Y-8211984D01*
X5305896Y-8211984D02*
X5305896Y-8011984D01*
X5305896Y-8011984D02*
X5286848Y-8040555D01*
X5286848Y-8040555D02*
X5267801Y-8059603D01*
X5267801Y-8059603D02*
X5248753Y-8069127D01*
X5448753Y-8192936D02*
X5458277Y-8202460D01*
X5458277Y-8202460D02*
X5448753Y-8211984D01*
X5448753Y-8211984D02*
X5439229Y-8202460D01*
X5439229Y-8202460D02*
X5448753Y-8192936D01*
X5448753Y-8192936D02*
X5448753Y-8211984D01*
X5582086Y-8011984D02*
X5601134Y-8011984D01*
X5601134Y-8011984D02*
X5620182Y-8021508D01*
X5620182Y-8021508D02*
X5629705Y-8031031D01*
X5629705Y-8031031D02*
X5639229Y-8050079D01*
X5639229Y-8050079D02*
X5648753Y-8088174D01*
X5648753Y-8088174D02*
X5648753Y-8135793D01*
X5648753Y-8135793D02*
X5639229Y-8173888D01*
X5639229Y-8173888D02*
X5629705Y-8192936D01*
X5629705Y-8192936D02*
X5620182Y-8202460D01*
X5620182Y-8202460D02*
X5601134Y-8211984D01*
X5601134Y-8211984D02*
X5582086Y-8211984D01*
X5582086Y-8211984D02*
X5563039Y-8202460D01*
X5563039Y-8202460D02*
X5553515Y-8192936D01*
X5553515Y-8192936D02*
X5543991Y-8173888D01*
X5543991Y-8173888D02*
X5534467Y-8135793D01*
X5534467Y-8135793D02*
X5534467Y-8088174D01*
X5534467Y-8088174D02*
X5543991Y-8050079D01*
X5543991Y-8050079D02*
X5553515Y-8031031D01*
X5553515Y-8031031D02*
X5563039Y-8021508D01*
X5563039Y-8021508D02*
X5582086Y-8011984D01*
X5772562Y-8011984D02*
X5791610Y-8011984D01*
X5791610Y-8011984D02*
X5810658Y-8021508D01*
X5810658Y-8021508D02*
X5820182Y-8031031D01*
X5820182Y-8031031D02*
X5829705Y-8050079D01*
X5829705Y-8050079D02*
X5839229Y-8088174D01*
X5839229Y-8088174D02*
X5839229Y-8135793D01*
X5839229Y-8135793D02*
X5829705Y-8173888D01*
X5829705Y-8173888D02*
X5820182Y-8192936D01*
X5820182Y-8192936D02*
X5810658Y-8202460D01*
X5810658Y-8202460D02*
X5791610Y-8211984D01*
X5791610Y-8211984D02*
X5772562Y-8211984D01*
X5772562Y-8211984D02*
X5753515Y-8202460D01*
X5753515Y-8202460D02*
X5743991Y-8192936D01*
X5743991Y-8192936D02*
X5734467Y-8173888D01*
X5734467Y-8173888D02*
X5724943Y-8135793D01*
X5724943Y-8135793D02*
X5724943Y-8088174D01*
X5724943Y-8088174D02*
X5734467Y-8050079D01*
X5734467Y-8050079D02*
X5743991Y-8031031D01*
X5743991Y-8031031D02*
X5753515Y-8021508D01*
X5753515Y-8021508D02*
X5772562Y-8011984D01*
X5963039Y-8011984D02*
X5982086Y-8011984D01*
X5982086Y-8011984D02*
X6001134Y-8021508D01*
X6001134Y-8021508D02*
X6010658Y-8031031D01*
X6010658Y-8031031D02*
X6020182Y-8050079D01*
X6020182Y-8050079D02*
X6029705Y-8088174D01*
X6029705Y-8088174D02*
X6029705Y-8135793D01*
X6029705Y-8135793D02*
X6020182Y-8173888D01*
X6020182Y-8173888D02*
X6010658Y-8192936D01*
X6010658Y-8192936D02*
X6001134Y-8202460D01*
X6001134Y-8202460D02*
X5982086Y-8211984D01*
X5982086Y-8211984D02*
X5963039Y-8211984D01*
X5963039Y-8211984D02*
X5943991Y-8202460D01*
X5943991Y-8202460D02*
X5934467Y-8192936D01*
X5934467Y-8192936D02*
X5924943Y-8173888D01*
X5924943Y-8173888D02*
X5915420Y-8135793D01*
X5915420Y-8135793D02*
X5915420Y-8088174D01*
X5915420Y-8088174D02*
X5924943Y-8050079D01*
X5924943Y-8050079D02*
X5934467Y-8031031D01*
X5934467Y-8031031D02*
X5943991Y-8021508D01*
X5943991Y-8021508D02*
X5963039Y-8011984D01*
X6115420Y-8211984D02*
X6115420Y-8078650D01*
X6115420Y-8097698D02*
X6124943Y-8088174D01*
X6124943Y-8088174D02*
X6143991Y-8078650D01*
X6143991Y-8078650D02*
X6172563Y-8078650D01*
X6172563Y-8078650D02*
X6191610Y-8088174D01*
X6191610Y-8088174D02*
X6201134Y-8107222D01*
X6201134Y-8107222D02*
X6201134Y-8211984D01*
X6201134Y-8107222D02*
X6210658Y-8088174D01*
X6210658Y-8088174D02*
X6229705Y-8078650D01*
X6229705Y-8078650D02*
X6258277Y-8078650D01*
X6258277Y-8078650D02*
X6277324Y-8088174D01*
X6277324Y-8088174D02*
X6286848Y-8107222D01*
X6286848Y-8107222D02*
X6286848Y-8211984D01*
X6382086Y-8211984D02*
X6382086Y-8078650D01*
X6382086Y-8097698D02*
X6391610Y-8088174D01*
X6391610Y-8088174D02*
X6410658Y-8078650D01*
X6410658Y-8078650D02*
X6439229Y-8078650D01*
X6439229Y-8078650D02*
X6458277Y-8088174D01*
X6458277Y-8088174D02*
X6467801Y-8107222D01*
X6467801Y-8107222D02*
X6467801Y-8211984D01*
X6467801Y-8107222D02*
X6477324Y-8088174D01*
X6477324Y-8088174D02*
X6496372Y-8078650D01*
X6496372Y-8078650D02*
X6524943Y-8078650D01*
X6524943Y-8078650D02*
X6543991Y-8088174D01*
X6543991Y-8088174D02*
X6553515Y-8107222D01*
X6553515Y-8107222D02*
X6553515Y-8211984D01*
X6943991Y-8002460D02*
X6772563Y-8259603D01*
X7201134Y-8011984D02*
X7220182Y-8011984D01*
X7220182Y-8011984D02*
X7239229Y-8021508D01*
X7239229Y-8021508D02*
X7248753Y-8031031D01*
X7248753Y-8031031D02*
X7258277Y-8050079D01*
X7258277Y-8050079D02*
X7267801Y-8088174D01*
X7267801Y-8088174D02*
X7267801Y-8135793D01*
X7267801Y-8135793D02*
X7258277Y-8173888D01*
X7258277Y-8173888D02*
X7248753Y-8192936D01*
X7248753Y-8192936D02*
X7239229Y-8202460D01*
X7239229Y-8202460D02*
X7220182Y-8211984D01*
X7220182Y-8211984D02*
X7201134Y-8211984D01*
X7201134Y-8211984D02*
X7182086Y-8202460D01*
X7182086Y-8202460D02*
X7172563Y-8192936D01*
X7172563Y-8192936D02*
X7163039Y-8173888D01*
X7163039Y-8173888D02*
X7153515Y-8135793D01*
X7153515Y-8135793D02*
X7153515Y-8088174D01*
X7153515Y-8088174D02*
X7163039Y-8050079D01*
X7163039Y-8050079D02*
X7172563Y-8031031D01*
X7172563Y-8031031D02*
X7182086Y-8021508D01*
X7182086Y-8021508D02*
X7201134Y-8011984D01*
X7353515Y-8192936D02*
X7363039Y-8202460D01*
X7363039Y-8202460D02*
X7353515Y-8211984D01*
X7353515Y-8211984D02*
X7343991Y-8202460D01*
X7343991Y-8202460D02*
X7353515Y-8192936D01*
X7353515Y-8192936D02*
X7353515Y-8211984D01*
X7486848Y-8011984D02*
X7505896Y-8011984D01*
X7505896Y-8011984D02*
X7524944Y-8021508D01*
X7524944Y-8021508D02*
X7534467Y-8031031D01*
X7534467Y-8031031D02*
X7543991Y-8050079D01*
X7543991Y-8050079D02*
X7553515Y-8088174D01*
X7553515Y-8088174D02*
X7553515Y-8135793D01*
X7553515Y-8135793D02*
X7543991Y-8173888D01*
X7543991Y-8173888D02*
X7534467Y-8192936D01*
X7534467Y-8192936D02*
X7524944Y-8202460D01*
X7524944Y-8202460D02*
X7505896Y-8211984D01*
X7505896Y-8211984D02*
X7486848Y-8211984D01*
X7486848Y-8211984D02*
X7467801Y-8202460D01*
X7467801Y-8202460D02*
X7458277Y-8192936D01*
X7458277Y-8192936D02*
X7448753Y-8173888D01*
X7448753Y-8173888D02*
X7439229Y-8135793D01*
X7439229Y-8135793D02*
X7439229Y-8088174D01*
X7439229Y-8088174D02*
X7448753Y-8050079D01*
X7448753Y-8050079D02*
X7458277Y-8031031D01*
X7458277Y-8031031D02*
X7467801Y-8021508D01*
X7467801Y-8021508D02*
X7486848Y-8011984D01*
X7620182Y-8011984D02*
X7743991Y-8011984D01*
X7743991Y-8011984D02*
X7677325Y-8088174D01*
X7677325Y-8088174D02*
X7705896Y-8088174D01*
X7705896Y-8088174D02*
X7724944Y-8097698D01*
X7724944Y-8097698D02*
X7734467Y-8107222D01*
X7734467Y-8107222D02*
X7743991Y-8126269D01*
X7743991Y-8126269D02*
X7743991Y-8173888D01*
X7743991Y-8173888D02*
X7734467Y-8192936D01*
X7734467Y-8192936D02*
X7724944Y-8202460D01*
X7724944Y-8202460D02*
X7705896Y-8211984D01*
X7705896Y-8211984D02*
X7648753Y-8211984D01*
X7648753Y-8211984D02*
X7629706Y-8202460D01*
X7629706Y-8202460D02*
X7620182Y-8192936D01*
X7839229Y-8211984D02*
X7877325Y-8211984D01*
X7877325Y-8211984D02*
X7896372Y-8202460D01*
X7896372Y-8202460D02*
X7905896Y-8192936D01*
X7905896Y-8192936D02*
X7924944Y-8164365D01*
X7924944Y-8164365D02*
X7934467Y-8126269D01*
X7934467Y-8126269D02*
X7934467Y-8050079D01*
X7934467Y-8050079D02*
X7924944Y-8031031D01*
X7924944Y-8031031D02*
X7915420Y-8021508D01*
X7915420Y-8021508D02*
X7896372Y-8011984D01*
X7896372Y-8011984D02*
X7858277Y-8011984D01*
X7858277Y-8011984D02*
X7839229Y-8021508D01*
X7839229Y-8021508D02*
X7829706Y-8031031D01*
X7829706Y-8031031D02*
X7820182Y-8050079D01*
X7820182Y-8050079D02*
X7820182Y-8097698D01*
X7820182Y-8097698D02*
X7829706Y-8116746D01*
X7829706Y-8116746D02*
X7839229Y-8126269D01*
X7839229Y-8126269D02*
X7858277Y-8135793D01*
X7858277Y-8135793D02*
X7896372Y-8135793D01*
X7896372Y-8135793D02*
X7915420Y-8126269D01*
X7915420Y-8126269D02*
X7924944Y-8116746D01*
X7924944Y-8116746D02*
X7934467Y-8097698D01*
X8105896Y-8078650D02*
X8105896Y-8211984D01*
X8058277Y-8002460D02*
X8010658Y-8145317D01*
X8010658Y-8145317D02*
X8134467Y-8145317D01*
X8201134Y-8011984D02*
X8201134Y-8050079D01*
X8277325Y-8011984D02*
X8277325Y-8050079D01*
X8572563Y-8288174D02*
X8563039Y-8278650D01*
X8563039Y-8278650D02*
X8543991Y-8250079D01*
X8543991Y-8250079D02*
X8534468Y-8231031D01*
X8534468Y-8231031D02*
X8524944Y-8202460D01*
X8524944Y-8202460D02*
X8515420Y-8154841D01*
X8515420Y-8154841D02*
X8515420Y-8116746D01*
X8515420Y-8116746D02*
X8524944Y-8069127D01*
X8524944Y-8069127D02*
X8534468Y-8040555D01*
X8534468Y-8040555D02*
X8543991Y-8021508D01*
X8543991Y-8021508D02*
X8563039Y-7992936D01*
X8563039Y-7992936D02*
X8572563Y-7983412D01*
X8734468Y-8011984D02*
X8696372Y-8011984D01*
X8696372Y-8011984D02*
X8677325Y-8021508D01*
X8677325Y-8021508D02*
X8667801Y-8031031D01*
X8667801Y-8031031D02*
X8648753Y-8059603D01*
X8648753Y-8059603D02*
X8639230Y-8097698D01*
X8639230Y-8097698D02*
X8639230Y-8173888D01*
X8639230Y-8173888D02*
X8648753Y-8192936D01*
X8648753Y-8192936D02*
X8658277Y-8202460D01*
X8658277Y-8202460D02*
X8677325Y-8211984D01*
X8677325Y-8211984D02*
X8715420Y-8211984D01*
X8715420Y-8211984D02*
X8734468Y-8202460D01*
X8734468Y-8202460D02*
X8743991Y-8192936D01*
X8743991Y-8192936D02*
X8753515Y-8173888D01*
X8753515Y-8173888D02*
X8753515Y-8126269D01*
X8753515Y-8126269D02*
X8743991Y-8107222D01*
X8743991Y-8107222D02*
X8734468Y-8097698D01*
X8734468Y-8097698D02*
X8715420Y-8088174D01*
X8715420Y-8088174D02*
X8677325Y-8088174D01*
X8677325Y-8088174D02*
X8658277Y-8097698D01*
X8658277Y-8097698D02*
X8648753Y-8107222D01*
X8648753Y-8107222D02*
X8639230Y-8126269D01*
X8991611Y-8211984D02*
X8991611Y-8011984D01*
X9077325Y-8211984D02*
X9077325Y-8107222D01*
X9077325Y-8107222D02*
X9067801Y-8088174D01*
X9067801Y-8088174D02*
X9048753Y-8078650D01*
X9048753Y-8078650D02*
X9020182Y-8078650D01*
X9020182Y-8078650D02*
X9001134Y-8088174D01*
X9001134Y-8088174D02*
X8991611Y-8097698D01*
X9201134Y-8211984D02*
X9182087Y-8202460D01*
X9182087Y-8202460D02*
X9172563Y-8192936D01*
X9172563Y-8192936D02*
X9163039Y-8173888D01*
X9163039Y-8173888D02*
X9163039Y-8116746D01*
X9163039Y-8116746D02*
X9172563Y-8097698D01*
X9172563Y-8097698D02*
X9182087Y-8088174D01*
X9182087Y-8088174D02*
X9201134Y-8078650D01*
X9201134Y-8078650D02*
X9229706Y-8078650D01*
X9229706Y-8078650D02*
X9248753Y-8088174D01*
X9248753Y-8088174D02*
X9258277Y-8097698D01*
X9258277Y-8097698D02*
X9267801Y-8116746D01*
X9267801Y-8116746D02*
X9267801Y-8173888D01*
X9267801Y-8173888D02*
X9258277Y-8192936D01*
X9258277Y-8192936D02*
X9248753Y-8202460D01*
X9248753Y-8202460D02*
X9229706Y-8211984D01*
X9229706Y-8211984D02*
X9201134Y-8211984D01*
X9382087Y-8211984D02*
X9363039Y-8202460D01*
X9363039Y-8202460D02*
X9353515Y-8183412D01*
X9353515Y-8183412D02*
X9353515Y-8011984D01*
X9534468Y-8202460D02*
X9515420Y-8211984D01*
X9515420Y-8211984D02*
X9477325Y-8211984D01*
X9477325Y-8211984D02*
X9458277Y-8202460D01*
X9458277Y-8202460D02*
X9448753Y-8183412D01*
X9448753Y-8183412D02*
X9448753Y-8107222D01*
X9448753Y-8107222D02*
X9458277Y-8088174D01*
X9458277Y-8088174D02*
X9477325Y-8078650D01*
X9477325Y-8078650D02*
X9515420Y-8078650D01*
X9515420Y-8078650D02*
X9534468Y-8088174D01*
X9534468Y-8088174D02*
X9543992Y-8107222D01*
X9543992Y-8107222D02*
X9543992Y-8126269D01*
X9543992Y-8126269D02*
X9448753Y-8145317D01*
X9620182Y-8202460D02*
X9639230Y-8211984D01*
X9639230Y-8211984D02*
X9677325Y-8211984D01*
X9677325Y-8211984D02*
X9696373Y-8202460D01*
X9696373Y-8202460D02*
X9705896Y-8183412D01*
X9705896Y-8183412D02*
X9705896Y-8173888D01*
X9705896Y-8173888D02*
X9696373Y-8154841D01*
X9696373Y-8154841D02*
X9677325Y-8145317D01*
X9677325Y-8145317D02*
X9648753Y-8145317D01*
X9648753Y-8145317D02*
X9629706Y-8135793D01*
X9629706Y-8135793D02*
X9620182Y-8116746D01*
X9620182Y-8116746D02*
X9620182Y-8107222D01*
X9620182Y-8107222D02*
X9629706Y-8088174D01*
X9629706Y-8088174D02*
X9648753Y-8078650D01*
X9648753Y-8078650D02*
X9677325Y-8078650D01*
X9677325Y-8078650D02*
X9696373Y-8088174D01*
X9772563Y-8288174D02*
X9782087Y-8278650D01*
X9782087Y-8278650D02*
X9801134Y-8250079D01*
X9801134Y-8250079D02*
X9810658Y-8231031D01*
X9810658Y-8231031D02*
X9820182Y-8202460D01*
X9820182Y-8202460D02*
X9829706Y-8154841D01*
X9829706Y-8154841D02*
X9829706Y-8116746D01*
X9829706Y-8116746D02*
X9820182Y-8069127D01*
X9820182Y-8069127D02*
X9810658Y-8040555D01*
X9810658Y-8040555D02*
X9801134Y-8021508D01*
X9801134Y-8021508D02*
X9782087Y-7992936D01*
X9782087Y-7992936D02*
X9772563Y-7983412D01*
X4968211Y-8455211D02*
X4968211Y-8313789D01*
X4826789Y-8313789D01*
X4826789Y-8455211D01*
X4968211Y-8455211D01*
X5239229Y-8275984D02*
X5363039Y-8275984D01*
X5363039Y-8275984D02*
X5296372Y-8352174D01*
X5296372Y-8352174D02*
X5324944Y-8352174D01*
X5324944Y-8352174D02*
X5343991Y-8361698D01*
X5343991Y-8361698D02*
X5353515Y-8371222D01*
X5353515Y-8371222D02*
X5363039Y-8390270D01*
X5363039Y-8390270D02*
X5363039Y-8437889D01*
X5363039Y-8437889D02*
X5353515Y-8456936D01*
X5353515Y-8456936D02*
X5343991Y-8466460D01*
X5343991Y-8466460D02*
X5324944Y-8475984D01*
X5324944Y-8475984D02*
X5267801Y-8475984D01*
X5267801Y-8475984D02*
X5248753Y-8466460D01*
X5248753Y-8466460D02*
X5239229Y-8456936D01*
X5448753Y-8456936D02*
X5458277Y-8466460D01*
X5458277Y-8466460D02*
X5448753Y-8475984D01*
X5448753Y-8475984D02*
X5439229Y-8466460D01*
X5439229Y-8466460D02*
X5448753Y-8456936D01*
X5448753Y-8456936D02*
X5448753Y-8475984D01*
X5534467Y-8295031D02*
X5543991Y-8285508D01*
X5543991Y-8285508D02*
X5563039Y-8275984D01*
X5563039Y-8275984D02*
X5610658Y-8275984D01*
X5610658Y-8275984D02*
X5629705Y-8285508D01*
X5629705Y-8285508D02*
X5639229Y-8295031D01*
X5639229Y-8295031D02*
X5648753Y-8314079D01*
X5648753Y-8314079D02*
X5648753Y-8333127D01*
X5648753Y-8333127D02*
X5639229Y-8361698D01*
X5639229Y-8361698D02*
X5524944Y-8475984D01*
X5524944Y-8475984D02*
X5648753Y-8475984D01*
X5772562Y-8275984D02*
X5791610Y-8275984D01*
X5791610Y-8275984D02*
X5810658Y-8285508D01*
X5810658Y-8285508D02*
X5820182Y-8295031D01*
X5820182Y-8295031D02*
X5829705Y-8314079D01*
X5829705Y-8314079D02*
X5839229Y-8352174D01*
X5839229Y-8352174D02*
X5839229Y-8399793D01*
X5839229Y-8399793D02*
X5829705Y-8437889D01*
X5829705Y-8437889D02*
X5820182Y-8456936D01*
X5820182Y-8456936D02*
X5810658Y-8466460D01*
X5810658Y-8466460D02*
X5791610Y-8475984D01*
X5791610Y-8475984D02*
X5772562Y-8475984D01*
X5772562Y-8475984D02*
X5753515Y-8466460D01*
X5753515Y-8466460D02*
X5743991Y-8456936D01*
X5743991Y-8456936D02*
X5734467Y-8437889D01*
X5734467Y-8437889D02*
X5724943Y-8399793D01*
X5724943Y-8399793D02*
X5724943Y-8352174D01*
X5724943Y-8352174D02*
X5734467Y-8314079D01*
X5734467Y-8314079D02*
X5743991Y-8295031D01*
X5743991Y-8295031D02*
X5753515Y-8285508D01*
X5753515Y-8285508D02*
X5772562Y-8275984D01*
X5963039Y-8275984D02*
X5982086Y-8275984D01*
X5982086Y-8275984D02*
X6001134Y-8285508D01*
X6001134Y-8285508D02*
X6010658Y-8295031D01*
X6010658Y-8295031D02*
X6020182Y-8314079D01*
X6020182Y-8314079D02*
X6029705Y-8352174D01*
X6029705Y-8352174D02*
X6029705Y-8399793D01*
X6029705Y-8399793D02*
X6020182Y-8437889D01*
X6020182Y-8437889D02*
X6010658Y-8456936D01*
X6010658Y-8456936D02*
X6001134Y-8466460D01*
X6001134Y-8466460D02*
X5982086Y-8475984D01*
X5982086Y-8475984D02*
X5963039Y-8475984D01*
X5963039Y-8475984D02*
X5943991Y-8466460D01*
X5943991Y-8466460D02*
X5934467Y-8456936D01*
X5934467Y-8456936D02*
X5924943Y-8437889D01*
X5924943Y-8437889D02*
X5915420Y-8399793D01*
X5915420Y-8399793D02*
X5915420Y-8352174D01*
X5915420Y-8352174D02*
X5924943Y-8314079D01*
X5924943Y-8314079D02*
X5934467Y-8295031D01*
X5934467Y-8295031D02*
X5943991Y-8285508D01*
X5943991Y-8285508D02*
X5963039Y-8275984D01*
X6115420Y-8475984D02*
X6115420Y-8342650D01*
X6115420Y-8361698D02*
X6124943Y-8352174D01*
X6124943Y-8352174D02*
X6143991Y-8342650D01*
X6143991Y-8342650D02*
X6172563Y-8342650D01*
X6172563Y-8342650D02*
X6191610Y-8352174D01*
X6191610Y-8352174D02*
X6201134Y-8371222D01*
X6201134Y-8371222D02*
X6201134Y-8475984D01*
X6201134Y-8371222D02*
X6210658Y-8352174D01*
X6210658Y-8352174D02*
X6229705Y-8342650D01*
X6229705Y-8342650D02*
X6258277Y-8342650D01*
X6258277Y-8342650D02*
X6277324Y-8352174D01*
X6277324Y-8352174D02*
X6286848Y-8371222D01*
X6286848Y-8371222D02*
X6286848Y-8475984D01*
X6382086Y-8475984D02*
X6382086Y-8342650D01*
X6382086Y-8361698D02*
X6391610Y-8352174D01*
X6391610Y-8352174D02*
X6410658Y-8342650D01*
X6410658Y-8342650D02*
X6439229Y-8342650D01*
X6439229Y-8342650D02*
X6458277Y-8352174D01*
X6458277Y-8352174D02*
X6467801Y-8371222D01*
X6467801Y-8371222D02*
X6467801Y-8475984D01*
X6467801Y-8371222D02*
X6477324Y-8352174D01*
X6477324Y-8352174D02*
X6496372Y-8342650D01*
X6496372Y-8342650D02*
X6524943Y-8342650D01*
X6524943Y-8342650D02*
X6543991Y-8352174D01*
X6543991Y-8352174D02*
X6553515Y-8371222D01*
X6553515Y-8371222D02*
X6553515Y-8475984D01*
X6943991Y-8266460D02*
X6772563Y-8523603D01*
X7201134Y-8275984D02*
X7220182Y-8275984D01*
X7220182Y-8275984D02*
X7239229Y-8285508D01*
X7239229Y-8285508D02*
X7248753Y-8295031D01*
X7248753Y-8295031D02*
X7258277Y-8314079D01*
X7258277Y-8314079D02*
X7267801Y-8352174D01*
X7267801Y-8352174D02*
X7267801Y-8399793D01*
X7267801Y-8399793D02*
X7258277Y-8437889D01*
X7258277Y-8437889D02*
X7248753Y-8456936D01*
X7248753Y-8456936D02*
X7239229Y-8466460D01*
X7239229Y-8466460D02*
X7220182Y-8475984D01*
X7220182Y-8475984D02*
X7201134Y-8475984D01*
X7201134Y-8475984D02*
X7182086Y-8466460D01*
X7182086Y-8466460D02*
X7172563Y-8456936D01*
X7172563Y-8456936D02*
X7163039Y-8437889D01*
X7163039Y-8437889D02*
X7153515Y-8399793D01*
X7153515Y-8399793D02*
X7153515Y-8352174D01*
X7153515Y-8352174D02*
X7163039Y-8314079D01*
X7163039Y-8314079D02*
X7172563Y-8295031D01*
X7172563Y-8295031D02*
X7182086Y-8285508D01*
X7182086Y-8285508D02*
X7201134Y-8275984D01*
X7353515Y-8456936D02*
X7363039Y-8466460D01*
X7363039Y-8466460D02*
X7353515Y-8475984D01*
X7353515Y-8475984D02*
X7343991Y-8466460D01*
X7343991Y-8466460D02*
X7353515Y-8456936D01*
X7353515Y-8456936D02*
X7353515Y-8475984D01*
X7553515Y-8475984D02*
X7439229Y-8475984D01*
X7496372Y-8475984D02*
X7496372Y-8275984D01*
X7496372Y-8275984D02*
X7477325Y-8304555D01*
X7477325Y-8304555D02*
X7458277Y-8323603D01*
X7458277Y-8323603D02*
X7439229Y-8333127D01*
X7629706Y-8295031D02*
X7639229Y-8285508D01*
X7639229Y-8285508D02*
X7658277Y-8275984D01*
X7658277Y-8275984D02*
X7705896Y-8275984D01*
X7705896Y-8275984D02*
X7724944Y-8285508D01*
X7724944Y-8285508D02*
X7734467Y-8295031D01*
X7734467Y-8295031D02*
X7743991Y-8314079D01*
X7743991Y-8314079D02*
X7743991Y-8333127D01*
X7743991Y-8333127D02*
X7734467Y-8361698D01*
X7734467Y-8361698D02*
X7620182Y-8475984D01*
X7620182Y-8475984D02*
X7743991Y-8475984D01*
X7915420Y-8275984D02*
X7877325Y-8275984D01*
X7877325Y-8275984D02*
X7858277Y-8285508D01*
X7858277Y-8285508D02*
X7848753Y-8295031D01*
X7848753Y-8295031D02*
X7829706Y-8323603D01*
X7829706Y-8323603D02*
X7820182Y-8361698D01*
X7820182Y-8361698D02*
X7820182Y-8437889D01*
X7820182Y-8437889D02*
X7829706Y-8456936D01*
X7829706Y-8456936D02*
X7839229Y-8466460D01*
X7839229Y-8466460D02*
X7858277Y-8475984D01*
X7858277Y-8475984D02*
X7896372Y-8475984D01*
X7896372Y-8475984D02*
X7915420Y-8466460D01*
X7915420Y-8466460D02*
X7924944Y-8456936D01*
X7924944Y-8456936D02*
X7934467Y-8437889D01*
X7934467Y-8437889D02*
X7934467Y-8390270D01*
X7934467Y-8390270D02*
X7924944Y-8371222D01*
X7924944Y-8371222D02*
X7915420Y-8361698D01*
X7915420Y-8361698D02*
X7896372Y-8352174D01*
X7896372Y-8352174D02*
X7858277Y-8352174D01*
X7858277Y-8352174D02*
X7839229Y-8361698D01*
X7839229Y-8361698D02*
X7829706Y-8371222D01*
X7829706Y-8371222D02*
X7820182Y-8390270D01*
X8058277Y-8275984D02*
X8077325Y-8275984D01*
X8077325Y-8275984D02*
X8096372Y-8285508D01*
X8096372Y-8285508D02*
X8105896Y-8295031D01*
X8105896Y-8295031D02*
X8115420Y-8314079D01*
X8115420Y-8314079D02*
X8124944Y-8352174D01*
X8124944Y-8352174D02*
X8124944Y-8399793D01*
X8124944Y-8399793D02*
X8115420Y-8437889D01*
X8115420Y-8437889D02*
X8105896Y-8456936D01*
X8105896Y-8456936D02*
X8096372Y-8466460D01*
X8096372Y-8466460D02*
X8077325Y-8475984D01*
X8077325Y-8475984D02*
X8058277Y-8475984D01*
X8058277Y-8475984D02*
X8039229Y-8466460D01*
X8039229Y-8466460D02*
X8029706Y-8456936D01*
X8029706Y-8456936D02*
X8020182Y-8437889D01*
X8020182Y-8437889D02*
X8010658Y-8399793D01*
X8010658Y-8399793D02*
X8010658Y-8352174D01*
X8010658Y-8352174D02*
X8020182Y-8314079D01*
X8020182Y-8314079D02*
X8029706Y-8295031D01*
X8029706Y-8295031D02*
X8039229Y-8285508D01*
X8039229Y-8285508D02*
X8058277Y-8275984D01*
X8201134Y-8275984D02*
X8201134Y-8314079D01*
X8277325Y-8275984D02*
X8277325Y-8314079D01*
X8572563Y-8552174D02*
X8563039Y-8542650D01*
X8563039Y-8542650D02*
X8543991Y-8514079D01*
X8543991Y-8514079D02*
X8534468Y-8495031D01*
X8534468Y-8495031D02*
X8524944Y-8466460D01*
X8524944Y-8466460D02*
X8515420Y-8418841D01*
X8515420Y-8418841D02*
X8515420Y-8380746D01*
X8515420Y-8380746D02*
X8524944Y-8333127D01*
X8524944Y-8333127D02*
X8534468Y-8304555D01*
X8534468Y-8304555D02*
X8543991Y-8285508D01*
X8543991Y-8285508D02*
X8563039Y-8256936D01*
X8563039Y-8256936D02*
X8572563Y-8247412D01*
X8639230Y-8295031D02*
X8648753Y-8285508D01*
X8648753Y-8285508D02*
X8667801Y-8275984D01*
X8667801Y-8275984D02*
X8715420Y-8275984D01*
X8715420Y-8275984D02*
X8734468Y-8285508D01*
X8734468Y-8285508D02*
X8743991Y-8295031D01*
X8743991Y-8295031D02*
X8753515Y-8314079D01*
X8753515Y-8314079D02*
X8753515Y-8333127D01*
X8753515Y-8333127D02*
X8743991Y-8361698D01*
X8743991Y-8361698D02*
X8629706Y-8475984D01*
X8629706Y-8475984D02*
X8753515Y-8475984D01*
X8991611Y-8475984D02*
X8991611Y-8275984D01*
X9077325Y-8475984D02*
X9077325Y-8371222D01*
X9077325Y-8371222D02*
X9067801Y-8352174D01*
X9067801Y-8352174D02*
X9048753Y-8342650D01*
X9048753Y-8342650D02*
X9020182Y-8342650D01*
X9020182Y-8342650D02*
X9001134Y-8352174D01*
X9001134Y-8352174D02*
X8991611Y-8361698D01*
X9201134Y-8475984D02*
X9182087Y-8466460D01*
X9182087Y-8466460D02*
X9172563Y-8456936D01*
X9172563Y-8456936D02*
X9163039Y-8437889D01*
X9163039Y-8437889D02*
X9163039Y-8380746D01*
X9163039Y-8380746D02*
X9172563Y-8361698D01*
X9172563Y-8361698D02*
X9182087Y-8352174D01*
X9182087Y-8352174D02*
X9201134Y-8342650D01*
X9201134Y-8342650D02*
X9229706Y-8342650D01*
X9229706Y-8342650D02*
X9248753Y-8352174D01*
X9248753Y-8352174D02*
X9258277Y-8361698D01*
X9258277Y-8361698D02*
X9267801Y-8380746D01*
X9267801Y-8380746D02*
X9267801Y-8437889D01*
X9267801Y-8437889D02*
X9258277Y-8456936D01*
X9258277Y-8456936D02*
X9248753Y-8466460D01*
X9248753Y-8466460D02*
X9229706Y-8475984D01*
X9229706Y-8475984D02*
X9201134Y-8475984D01*
X9382087Y-8475984D02*
X9363039Y-8466460D01*
X9363039Y-8466460D02*
X9353515Y-8447412D01*
X9353515Y-8447412D02*
X9353515Y-8275984D01*
X9534468Y-8466460D02*
X9515420Y-8475984D01*
X9515420Y-8475984D02*
X9477325Y-8475984D01*
X9477325Y-8475984D02*
X9458277Y-8466460D01*
X9458277Y-8466460D02*
X9448753Y-8447412D01*
X9448753Y-8447412D02*
X9448753Y-8371222D01*
X9448753Y-8371222D02*
X9458277Y-8352174D01*
X9458277Y-8352174D02*
X9477325Y-8342650D01*
X9477325Y-8342650D02*
X9515420Y-8342650D01*
X9515420Y-8342650D02*
X9534468Y-8352174D01*
X9534468Y-8352174D02*
X9543992Y-8371222D01*
X9543992Y-8371222D02*
X9543992Y-8390270D01*
X9543992Y-8390270D02*
X9448753Y-8409317D01*
X9620182Y-8466460D02*
X9639230Y-8475984D01*
X9639230Y-8475984D02*
X9677325Y-8475984D01*
X9677325Y-8475984D02*
X9696373Y-8466460D01*
X9696373Y-8466460D02*
X9705896Y-8447412D01*
X9705896Y-8447412D02*
X9705896Y-8437889D01*
X9705896Y-8437889D02*
X9696373Y-8418841D01*
X9696373Y-8418841D02*
X9677325Y-8409317D01*
X9677325Y-8409317D02*
X9648753Y-8409317D01*
X9648753Y-8409317D02*
X9629706Y-8399793D01*
X9629706Y-8399793D02*
X9620182Y-8380746D01*
X9620182Y-8380746D02*
X9620182Y-8371222D01*
X9620182Y-8371222D02*
X9629706Y-8352174D01*
X9629706Y-8352174D02*
X9648753Y-8342650D01*
X9648753Y-8342650D02*
X9677325Y-8342650D01*
X9677325Y-8342650D02*
X9696373Y-8352174D01*
X9772563Y-8552174D02*
X9782087Y-8542650D01*
X9782087Y-8542650D02*
X9801134Y-8514079D01*
X9801134Y-8514079D02*
X9810658Y-8495031D01*
X9810658Y-8495031D02*
X9820182Y-8466460D01*
X9820182Y-8466460D02*
X9829706Y-8418841D01*
X9829706Y-8418841D02*
X9829706Y-8380746D01*
X9829706Y-8380746D02*
X9820182Y-8333127D01*
X9820182Y-8333127D02*
X9810658Y-8304555D01*
X9810658Y-8304555D02*
X9801134Y-8285508D01*
X9801134Y-8285508D02*
X9782087Y-8256936D01*
X9782087Y-8256936D02*
X9772563Y-8247412D01*
M02*
