%TF.GenerationSoftware,KiCad,Pcbnew,9.0.7*%
%TF.CreationDate,2026-05-02T19:19:38+05:30*%
%TF.ProjectId,LiPo_Charge_Boost,4c69506f-5f43-4686-9172-67655f426f6f,rev?*%
%TF.SameCoordinates,Original*%
%TF.FileFunction,Drillmap*%
%TF.FilePolarity,Positive*%
%FSLAX45Y45*%
G04 Gerber Fmt 4.5, Leading zero omitted, Abs format (unit mm)*
G04 Created by KiCad (PCBNEW 9.0.7) date 2026-05-02 19:19:38*
%MOMM*%
%LPD*%
G01*
G04 APERTURE LIST*
%ADD10C,0.050000*%
%ADD11C,0.200000*%
G04 APERTURE END LIST*
D10*
X5300000Y-6950000D02*
G75*
G02*
X5000000Y-6650000I0J300000D01*
G01*
X5000000Y-6650000D02*
X5000000Y-3300000D01*
X7900000Y-6650000D02*
G75*
G02*
X7600000Y-6950000I-300000J0D01*
G01*
X7600000Y-6950000D02*
X5300000Y-6950000D01*
X7900000Y-3300000D02*
X7900000Y-6650000D01*
X5000000Y-3300000D02*
G75*
G02*
X5300000Y-3000000I300000J0D01*
G01*
X7600000Y-3000000D02*
G75*
G02*
X7900000Y-3300000I0J-300000D01*
G01*
X5300000Y-3000000D02*
X7600000Y-3000000D01*
D11*
X5258277Y-7263984D02*
X5258277Y-7063984D01*
X5258277Y-7063984D02*
X5305896Y-7063984D01*
X5305896Y-7063984D02*
X5334467Y-7073508D01*
X5334467Y-7073508D02*
X5353515Y-7092555D01*
X5353515Y-7092555D02*
X5363039Y-7111603D01*
X5363039Y-7111603D02*
X5372563Y-7149698D01*
X5372563Y-7149698D02*
X5372563Y-7178269D01*
X5372563Y-7178269D02*
X5363039Y-7216365D01*
X5363039Y-7216365D02*
X5353515Y-7235412D01*
X5353515Y-7235412D02*
X5334467Y-7254460D01*
X5334467Y-7254460D02*
X5305896Y-7263984D01*
X5305896Y-7263984D02*
X5258277Y-7263984D01*
X5458277Y-7263984D02*
X5458277Y-7130650D01*
X5458277Y-7168746D02*
X5467801Y-7149698D01*
X5467801Y-7149698D02*
X5477324Y-7140174D01*
X5477324Y-7140174D02*
X5496372Y-7130650D01*
X5496372Y-7130650D02*
X5515420Y-7130650D01*
X5582086Y-7263984D02*
X5582086Y-7130650D01*
X5582086Y-7063984D02*
X5572563Y-7073508D01*
X5572563Y-7073508D02*
X5582086Y-7083031D01*
X5582086Y-7083031D02*
X5591610Y-7073508D01*
X5591610Y-7073508D02*
X5582086Y-7063984D01*
X5582086Y-7063984D02*
X5582086Y-7083031D01*
X5705896Y-7263984D02*
X5686848Y-7254460D01*
X5686848Y-7254460D02*
X5677324Y-7235412D01*
X5677324Y-7235412D02*
X5677324Y-7063984D01*
X5810658Y-7263984D02*
X5791610Y-7254460D01*
X5791610Y-7254460D02*
X5782086Y-7235412D01*
X5782086Y-7235412D02*
X5782086Y-7063984D01*
X6039229Y-7263984D02*
X6039229Y-7063984D01*
X6039229Y-7063984D02*
X6105896Y-7206841D01*
X6105896Y-7206841D02*
X6172562Y-7063984D01*
X6172562Y-7063984D02*
X6172562Y-7263984D01*
X6353515Y-7263984D02*
X6353515Y-7159222D01*
X6353515Y-7159222D02*
X6343991Y-7140174D01*
X6343991Y-7140174D02*
X6324943Y-7130650D01*
X6324943Y-7130650D02*
X6286848Y-7130650D01*
X6286848Y-7130650D02*
X6267801Y-7140174D01*
X6353515Y-7254460D02*
X6334467Y-7263984D01*
X6334467Y-7263984D02*
X6286848Y-7263984D01*
X6286848Y-7263984D02*
X6267801Y-7254460D01*
X6267801Y-7254460D02*
X6258277Y-7235412D01*
X6258277Y-7235412D02*
X6258277Y-7216365D01*
X6258277Y-7216365D02*
X6267801Y-7197317D01*
X6267801Y-7197317D02*
X6286848Y-7187793D01*
X6286848Y-7187793D02*
X6334467Y-7187793D01*
X6334467Y-7187793D02*
X6353515Y-7178269D01*
X6448753Y-7130650D02*
X6448753Y-7330650D01*
X6448753Y-7140174D02*
X6467801Y-7130650D01*
X6467801Y-7130650D02*
X6505896Y-7130650D01*
X6505896Y-7130650D02*
X6524943Y-7140174D01*
X6524943Y-7140174D02*
X6534467Y-7149698D01*
X6534467Y-7149698D02*
X6543991Y-7168746D01*
X6543991Y-7168746D02*
X6543991Y-7225888D01*
X6543991Y-7225888D02*
X6534467Y-7244936D01*
X6534467Y-7244936D02*
X6524943Y-7254460D01*
X6524943Y-7254460D02*
X6505896Y-7263984D01*
X6505896Y-7263984D02*
X6467801Y-7263984D01*
X6467801Y-7263984D02*
X6448753Y-7254460D01*
X6629705Y-7244936D02*
X6639229Y-7254460D01*
X6639229Y-7254460D02*
X6629705Y-7263984D01*
X6629705Y-7263984D02*
X6620182Y-7254460D01*
X6620182Y-7254460D02*
X6629705Y-7244936D01*
X6629705Y-7244936D02*
X6629705Y-7263984D01*
X6629705Y-7140174D02*
X6639229Y-7149698D01*
X6639229Y-7149698D02*
X6629705Y-7159222D01*
X6629705Y-7159222D02*
X6620182Y-7149698D01*
X6620182Y-7149698D02*
X6629705Y-7140174D01*
X6629705Y-7140174D02*
X6629705Y-7159222D01*
M02*
