%TF.GenerationSoftware,KiCad,Pcbnew,9.0.7*%
%TF.CreationDate,2026-05-02T19:19:33+05:30*%
%TF.ProjectId,LiPo_Charge_Boost,4c69506f-5f43-4686-9172-67655f426f6f,rev?*%
%TF.SameCoordinates,Original*%
%TF.FileFunction,Soldermask,Top*%
%TF.FilePolarity,Negative*%
%FSLAX46Y46*%
G04 Gerber Fmt 4.6, Leading zero omitted, Abs format (unit mm)*
G04 Created by KiCad (PCBNEW 9.0.7) date 2026-05-02 19:19:33*
%MOMM*%
%LPD*%
G01*
G04 APERTURE LIST*
G04 Aperture macros list*
%AMRoundRect*
0 Rectangle with rounded corners*
0 $1 Rounding radius*
0 $2 $3 $4 $5 $6 $7 $8 $9 X,Y pos of 4 corners*
0 Add a 4 corners polygon primitive as box body*
4,1,4,$2,$3,$4,$5,$6,$7,$8,$9,$2,$3,0*
0 Add four circle primitives for the rounded corners*
1,1,$1+$1,$2,$3*
1,1,$1+$1,$4,$5*
1,1,$1+$1,$6,$7*
1,1,$1+$1,$8,$9*
0 Add four rect primitives between the rounded corners*
20,1,$1+$1,$2,$3,$4,$5,0*
20,1,$1+$1,$4,$5,$6,$7,0*
20,1,$1+$1,$6,$7,$8,$9,0*
20,1,$1+$1,$8,$9,$2,$3,0*%
G04 Aperture macros list end*
%ADD10RoundRect,0.250000X0.600000X0.750000X-0.600000X0.750000X-0.600000X-0.750000X0.600000X-0.750000X0*%
%ADD11O,1.700000X2.000000*%
%ADD12RoundRect,0.250000X-0.625000X0.400000X-0.625000X-0.400000X0.625000X-0.400000X0.625000X0.400000X0*%
%ADD13RoundRect,0.250000X0.650000X-0.412500X0.650000X0.412500X-0.650000X0.412500X-0.650000X-0.412500X0*%
%ADD14RoundRect,0.250000X-0.400000X-0.625000X0.400000X-0.625000X0.400000X0.625000X-0.400000X0.625000X0*%
%ADD15RoundRect,0.250001X0.462499X0.624999X-0.462499X0.624999X-0.462499X-0.624999X0.462499X-0.624999X0*%
%ADD16RoundRect,0.250000X-0.650000X0.412500X-0.650000X-0.412500X0.650000X-0.412500X0.650000X0.412500X0*%
%ADD17RoundRect,0.250000X-0.412500X-0.650000X0.412500X-0.650000X0.412500X0.650000X-0.412500X0.650000X0*%
%ADD18RoundRect,0.150000X0.150000X-0.587500X0.150000X0.587500X-0.150000X0.587500X-0.150000X-0.587500X0*%
%ADD19C,3.600000*%
%ADD20C,5.600000*%
%ADD21RoundRect,0.150000X0.150000X-0.825000X0.150000X0.825000X-0.150000X0.825000X-0.150000X-0.825000X0*%
%ADD22R,3.300000X2.410000*%
%ADD23RoundRect,0.250000X1.000000X0.650000X-1.000000X0.650000X-1.000000X-0.650000X1.000000X-0.650000X0*%
%ADD24RoundRect,0.235000X-1.465000X0.940000X-1.465000X-0.940000X1.465000X-0.940000X1.465000X0.940000X0*%
%ADD25RoundRect,0.250000X-0.600000X-0.750000X0.600000X-0.750000X0.600000X0.750000X-0.600000X0.750000X0*%
%ADD26RoundRect,0.150000X0.150000X-0.512500X0.150000X0.512500X-0.150000X0.512500X-0.150000X-0.512500X0*%
%ADD27RoundRect,0.250000X-0.750000X0.600000X-0.750000X-0.600000X0.750000X-0.600000X0.750000X0.600000X0*%
%ADD28O,2.000000X1.700000*%
%ADD29RoundRect,0.250000X0.400000X0.625000X-0.400000X0.625000X-0.400000X-0.625000X0.400000X-0.625000X0*%
G04 APERTURE END LIST*
D10*
%TO.C,J2*%
X69037200Y-66471800D03*
D11*
X66537200Y-66471800D03*
%TD*%
D12*
%TO.C,R6*%
X61295600Y-46816399D03*
X61295600Y-49916401D03*
%TD*%
D13*
%TO.C,C3*%
X72217600Y-49255400D03*
X72217600Y-46130400D03*
%TD*%
D14*
%TO.C,R5*%
X73766399Y-60253600D03*
X76866401Y-60253600D03*
%TD*%
D15*
%TO.C,D1*%
X56412600Y-35641000D03*
X53437600Y-35641000D03*
%TD*%
D16*
%TO.C,C2*%
X63518400Y-38876100D03*
X63518400Y-42001100D03*
%TD*%
D12*
%TO.C,R2*%
X59105000Y-32719399D03*
X59105000Y-35819401D03*
%TD*%
D17*
%TO.C,C4*%
X72052100Y-56672200D03*
X75177100Y-56672200D03*
%TD*%
D18*
%TO.C,Q1*%
X66025000Y-43972200D03*
X67925000Y-43972200D03*
X66975000Y-42097199D03*
%TD*%
D19*
%TO.C,H1*%
X75285600Y-33883600D03*
D20*
X75285600Y-33883600D03*
%TD*%
D21*
%TO.C,U1*%
X57504800Y-43842200D03*
X58774800Y-43842200D03*
X60044800Y-43842200D03*
X61314800Y-43842200D03*
X61314800Y-38892200D03*
X60044800Y-38892200D03*
X58774800Y-38892200D03*
X57504800Y-38892200D03*
D22*
X59409800Y-41367200D03*
%TD*%
D23*
%TO.C,D3*%
X69677600Y-60939400D03*
X65677598Y-60939400D03*
%TD*%
%TO.C,D4*%
X69055201Y-47121800D03*
X65055199Y-47121800D03*
%TD*%
D24*
%TO.C,L1*%
X66858200Y-51160400D03*
X66858200Y-57210400D03*
%TD*%
D25*
%TO.C,J1*%
X66161600Y-33888400D03*
D11*
X68661600Y-33888400D03*
%TD*%
D26*
%TO.C,U2*%
X71689202Y-53816400D03*
X72639201Y-53816400D03*
X73589200Y-53816400D03*
X73589200Y-51541400D03*
X72639201Y-51541400D03*
X71689202Y-51541400D03*
%TD*%
D27*
%TO.C,J3*%
X54254400Y-48935000D03*
D28*
X54254400Y-51435000D03*
%TD*%
D19*
%TO.C,H2*%
X54457600Y-64947800D03*
D20*
X54457600Y-64947800D03*
%TD*%
D15*
%TO.C,D2*%
X56387200Y-32974000D03*
X53412200Y-32974000D03*
%TD*%
D12*
%TO.C,R3*%
X58114400Y-46813399D03*
X58114400Y-49913401D03*
%TD*%
D13*
%TO.C,C1*%
X54279800Y-44361500D03*
X54279800Y-41236500D03*
%TD*%
D12*
%TO.C,R1*%
X61518000Y-32693999D03*
X61518000Y-35794001D03*
%TD*%
D29*
%TO.C,R4*%
X76866401Y-62979401D03*
X73766399Y-62979401D03*
%TD*%
M02*
