%TF.GenerationSoftware,KiCad,Pcbnew,9.0.7*%
%TF.CreationDate,2026-05-02T19:19:33+05:30*%
%TF.ProjectId,LiPo_Charge_Boost,4c69506f-5f43-4686-9172-67655f426f6f,rev?*%
%TF.SameCoordinates,Original*%
%TF.FileFunction,Copper,L2,Bot*%
%TF.FilePolarity,Positive*%
%FSLAX46Y46*%
G04 Gerber Fmt 4.6, Leading zero omitted, Abs format (unit mm)*
G04 Created by KiCad (PCBNEW 9.0.7) date 2026-05-02 19:19:33*
%MOMM*%
%LPD*%
G01*
G04 APERTURE LIST*
G04 Aperture macros list*
%AMRoundRect*
0 Rectangle with rounded corners*
0 $1 Rounding radius*
0 $2 $3 $4 $5 $6 $7 $8 $9 X,Y pos of 4 corners*
0 Add a 4 corners polygon primitive as box body*
4,1,4,$2,$3,$4,$5,$6,$7,$8,$9,$2,$3,0*
0 Add four circle primitives for the rounded corners*
1,1,$1+$1,$2,$3*
1,1,$1+$1,$4,$5*
1,1,$1+$1,$6,$7*
1,1,$1+$1,$8,$9*
0 Add four rect primitives between the rounded corners*
20,1,$1+$1,$2,$3,$4,$5,0*
20,1,$1+$1,$4,$5,$6,$7,0*
20,1,$1+$1,$6,$7,$8,$9,0*
20,1,$1+$1,$8,$9,$2,$3,0*%
G04 Aperture macros list end*
%TA.AperFunction,ComponentPad*%
%ADD10RoundRect,0.250000X0.600000X0.750000X-0.600000X0.750000X-0.600000X-0.750000X0.600000X-0.750000X0*%
%TD*%
%TA.AperFunction,ComponentPad*%
%ADD11O,1.700000X2.000000*%
%TD*%
%TA.AperFunction,ComponentPad*%
%ADD12C,3.600000*%
%TD*%
%TA.AperFunction,ConnectorPad*%
%ADD13C,5.600000*%
%TD*%
%TA.AperFunction,HeatsinkPad*%
%ADD14C,0.500000*%
%TD*%
%TA.AperFunction,HeatsinkPad*%
%ADD15R,2.900000X1.900000*%
%TD*%
%TA.AperFunction,ComponentPad*%
%ADD16RoundRect,0.250000X-0.600000X-0.750000X0.600000X-0.750000X0.600000X0.750000X-0.600000X0.750000X0*%
%TD*%
%TA.AperFunction,ComponentPad*%
%ADD17RoundRect,0.250000X-0.750000X0.600000X-0.750000X-0.600000X0.750000X-0.600000X0.750000X0.600000X0*%
%TD*%
%TA.AperFunction,ComponentPad*%
%ADD18O,2.000000X1.700000*%
%TD*%
%TA.AperFunction,ViaPad*%
%ADD19C,0.620000*%
%TD*%
%TA.AperFunction,Conductor*%
%ADD20C,1.000000*%
%TD*%
G04 APERTURE END LIST*
D10*
%TO.P,J2,1,Pin_1*%
%TO.N,Net-(D3-K)*%
X69037200Y-66471800D03*
D11*
%TO.P,J2,2,Pin_2*%
%TO.N,GND*%
X66537200Y-66471800D03*
%TD*%
D12*
%TO.P,H1,1*%
%TO.N,N/C*%
X75285600Y-33883600D03*
D13*
X75285600Y-33883600D03*
%TD*%
D14*
%TO.P,U1,9,EPAD*%
%TO.N,GND*%
X58209800Y-42067200D03*
X59409800Y-42067200D03*
X60609800Y-42067200D03*
D15*
X59409800Y-41367200D03*
D14*
X58209800Y-40667200D03*
X59409800Y-40667200D03*
X60609800Y-40667200D03*
%TD*%
D16*
%TO.P,J1,1,Pin_1*%
%TO.N,BAT+*%
X66161600Y-33888400D03*
D11*
%TO.P,J1,2,Pin_2*%
%TO.N,GND*%
X68661600Y-33888400D03*
%TD*%
D17*
%TO.P,J3,1,Pin_1*%
%TO.N,5V*%
X54254400Y-48935000D03*
D18*
%TO.P,J3,2,Pin_2*%
%TO.N,GND*%
X54254400Y-51435000D03*
%TD*%
D12*
%TO.P,H2,1*%
%TO.N,N/C*%
X54457600Y-64947800D03*
D13*
X54457600Y-64947800D03*
%TD*%
D19*
%TO.N,GND*%
X57684800Y-57327800D03*
X61315600Y-52933600D03*
X56184800Y-60327800D03*
X59184800Y-60327800D03*
X57684800Y-60327800D03*
X56184800Y-58827800D03*
X57684800Y-58827800D03*
X77396600Y-44222800D03*
X58140600Y-52857400D03*
X74396600Y-44222800D03*
X72896600Y-41222800D03*
X53184800Y-58827800D03*
X59184800Y-57327800D03*
X72896600Y-42722800D03*
X54684800Y-57327800D03*
X72896600Y-44222800D03*
X59184800Y-58827800D03*
X77396600Y-42722800D03*
X72644000Y-55143400D03*
X75896600Y-41222800D03*
X72059800Y-62993400D03*
X72059800Y-61493400D03*
X56184800Y-57327800D03*
X78079600Y-53719600D03*
X53184800Y-57327800D03*
X54684800Y-58827800D03*
X71396600Y-42722800D03*
X71396600Y-41222800D03*
X74396600Y-42722800D03*
X71396600Y-44222800D03*
X75896600Y-44222800D03*
X77396600Y-41222800D03*
X78079600Y-55219600D03*
X78079600Y-56719600D03*
X53184800Y-60327800D03*
X75896600Y-42722800D03*
X74396600Y-41222800D03*
X54684800Y-60327800D03*
%TO.N,5V*%
X56134000Y-45085000D03*
X62534800Y-45085000D03*
%TD*%
D20*
%TO.N,5V*%
X62534800Y-45085000D02*
X56134000Y-45085000D01*
%TD*%
%TA.AperFunction,Conductor*%
%TO.N,GND*%
G36*
X76003472Y-30300695D02*
G01*
X76295306Y-30317084D01*
X76309103Y-30318638D01*
X76593827Y-30367015D01*
X76607384Y-30370109D01*
X76884899Y-30450060D01*
X76898025Y-30454653D01*
X77164841Y-30565172D01*
X77177355Y-30571198D01*
X77343444Y-30662992D01*
X77430125Y-30710899D01*
X77441899Y-30718297D01*
X77677430Y-30885415D01*
X77688302Y-30894085D01*
X77823157Y-31014599D01*
X77903642Y-31086524D01*
X77913475Y-31096357D01*
X78105914Y-31311697D01*
X78114584Y-31322569D01*
X78281702Y-31558100D01*
X78289100Y-31569874D01*
X78428797Y-31822637D01*
X78434830Y-31835165D01*
X78545346Y-32101975D01*
X78549939Y-32115100D01*
X78629890Y-32392615D01*
X78632984Y-32406172D01*
X78681359Y-32690885D01*
X78682916Y-32704703D01*
X78699305Y-32996527D01*
X78699500Y-33003480D01*
X78699500Y-66496519D01*
X78699305Y-66503472D01*
X78682916Y-66795296D01*
X78681359Y-66809114D01*
X78632984Y-67093827D01*
X78629890Y-67107384D01*
X78549939Y-67384899D01*
X78545346Y-67398024D01*
X78434830Y-67664834D01*
X78428797Y-67677362D01*
X78289100Y-67930125D01*
X78281702Y-67941899D01*
X78114584Y-68177430D01*
X78105914Y-68188302D01*
X77913475Y-68403642D01*
X77903642Y-68413475D01*
X77688302Y-68605914D01*
X77677430Y-68614584D01*
X77441899Y-68781702D01*
X77430125Y-68789100D01*
X77177362Y-68928797D01*
X77164834Y-68934830D01*
X76898024Y-69045346D01*
X76884899Y-69049939D01*
X76607384Y-69129890D01*
X76593827Y-69132984D01*
X76309114Y-69181359D01*
X76295296Y-69182916D01*
X76003472Y-69199305D01*
X75996519Y-69199500D01*
X53003481Y-69199500D01*
X52996528Y-69199305D01*
X52704703Y-69182916D01*
X52690885Y-69181359D01*
X52406172Y-69132984D01*
X52392615Y-69129890D01*
X52115100Y-69049939D01*
X52101975Y-69045346D01*
X51835165Y-68934830D01*
X51822637Y-68928797D01*
X51569874Y-68789100D01*
X51558100Y-68781702D01*
X51322569Y-68614584D01*
X51311697Y-68605914D01*
X51096357Y-68413475D01*
X51086524Y-68403642D01*
X50894085Y-68188302D01*
X50885415Y-68177430D01*
X50718297Y-67941899D01*
X50710899Y-67930125D01*
X50648267Y-67816800D01*
X50571198Y-67677355D01*
X50565172Y-67664841D01*
X50454653Y-67398024D01*
X50450060Y-67384899D01*
X50370109Y-67107384D01*
X50367015Y-67093827D01*
X50340527Y-66937930D01*
X50318638Y-66809103D01*
X50317084Y-66795306D01*
X50300695Y-66503472D01*
X50300500Y-66496519D01*
X50300500Y-64773675D01*
X51357100Y-64773675D01*
X51357100Y-65121924D01*
X51396089Y-65467958D01*
X51396091Y-65467970D01*
X51473582Y-65807484D01*
X51473585Y-65807492D01*
X51588599Y-66136182D01*
X51739692Y-66449930D01*
X51924971Y-66744799D01*
X51924972Y-66744801D01*
X52142087Y-67017056D01*
X52388343Y-67263312D01*
X52660598Y-67480427D01*
X52660601Y-67480428D01*
X52660603Y-67480430D01*
X52955467Y-67665706D01*
X53269221Y-67816802D01*
X53516088Y-67903184D01*
X53597907Y-67931814D01*
X53597915Y-67931817D01*
X53597918Y-67931817D01*
X53597919Y-67931818D01*
X53937429Y-68009309D01*
X54283476Y-68048299D01*
X54283477Y-68048300D01*
X54283480Y-68048300D01*
X54631723Y-68048300D01*
X54631723Y-68048299D01*
X54977771Y-68009309D01*
X55317281Y-67931818D01*
X55645979Y-67816802D01*
X55959733Y-67665706D01*
X56254597Y-67480430D01*
X56254601Y-67480427D01*
X56526856Y-67263312D01*
X56526858Y-67263309D01*
X56526863Y-67263306D01*
X56773106Y-67017063D01*
X56773141Y-67017020D01*
X56990227Y-66744801D01*
X56990228Y-66744799D01*
X56990230Y-66744797D01*
X57175506Y-66449933D01*
X57285369Y-66221800D01*
X57288377Y-66215553D01*
X65187200Y-66215553D01*
X65187200Y-66221800D01*
X66104188Y-66221800D01*
X66071275Y-66278807D01*
X66037200Y-66405974D01*
X66037200Y-66537626D01*
X66071275Y-66664793D01*
X66104188Y-66721800D01*
X65187200Y-66721800D01*
X65187200Y-66728046D01*
X65220442Y-66937927D01*
X65220442Y-66937930D01*
X65286104Y-67140017D01*
X65382579Y-67329357D01*
X65507472Y-67501259D01*
X65507476Y-67501264D01*
X65657735Y-67651523D01*
X65657740Y-67651527D01*
X65829642Y-67776420D01*
X66018982Y-67872895D01*
X66221071Y-67938557D01*
X66287200Y-67949031D01*
X66287200Y-66904812D01*
X66344207Y-66937725D01*
X66471374Y-66971800D01*
X66603026Y-66971800D01*
X66730193Y-66937725D01*
X66787200Y-66904812D01*
X66787200Y-67949030D01*
X66853326Y-67938557D01*
X66853329Y-67938557D01*
X67055417Y-67872895D01*
X67244757Y-67776420D01*
X67416659Y-67651527D01*
X67416664Y-67651523D01*
X67566921Y-67501266D01*
X67686093Y-67337239D01*
X67741423Y-67294573D01*
X67811036Y-67288594D01*
X67872832Y-67321199D01*
X67901766Y-67364633D01*
X67952838Y-67494141D01*
X68044277Y-67614722D01*
X68164856Y-67706160D01*
X68164857Y-67706160D01*
X68164858Y-67706161D01*
X68305636Y-67761677D01*
X68394098Y-67772300D01*
X68394103Y-67772300D01*
X69680297Y-67772300D01*
X69680302Y-67772300D01*
X69768764Y-67761677D01*
X69909542Y-67706161D01*
X70030122Y-67614722D01*
X70121561Y-67494142D01*
X70177077Y-67353364D01*
X70187700Y-67264902D01*
X70187700Y-65678698D01*
X70177077Y-65590236D01*
X70121561Y-65449458D01*
X70121560Y-65449457D01*
X70121560Y-65449456D01*
X70030122Y-65328877D01*
X69909543Y-65237439D01*
X69768761Y-65181922D01*
X69723126Y-65176442D01*
X69680302Y-65171300D01*
X68394098Y-65171300D01*
X68355053Y-65175988D01*
X68305638Y-65181922D01*
X68164856Y-65237439D01*
X68044277Y-65328877D01*
X67952838Y-65449458D01*
X67901766Y-65578966D01*
X67858860Y-65634109D01*
X67792952Y-65657302D01*
X67724968Y-65641181D01*
X67686094Y-65606360D01*
X67566927Y-65442340D01*
X67566923Y-65442335D01*
X67416664Y-65292076D01*
X67416659Y-65292072D01*
X67244757Y-65167179D01*
X67055415Y-65070703D01*
X66853324Y-65005041D01*
X66787200Y-64994568D01*
X66787200Y-66038788D01*
X66730193Y-66005875D01*
X66603026Y-65971800D01*
X66471374Y-65971800D01*
X66344207Y-66005875D01*
X66287200Y-66038788D01*
X66287200Y-64994568D01*
X66287199Y-64994568D01*
X66221075Y-65005041D01*
X66018984Y-65070703D01*
X65829642Y-65167179D01*
X65657740Y-65292072D01*
X65657735Y-65292076D01*
X65507476Y-65442335D01*
X65507472Y-65442340D01*
X65382579Y-65614242D01*
X65286104Y-65803582D01*
X65220442Y-66005669D01*
X65220442Y-66005672D01*
X65187200Y-66215553D01*
X57288377Y-66215553D01*
X57316634Y-66156879D01*
X57321797Y-66146155D01*
X57326602Y-66136179D01*
X57441618Y-65807481D01*
X57519109Y-65467971D01*
X57558100Y-65121920D01*
X57558100Y-64773680D01*
X57519109Y-64427629D01*
X57441618Y-64088119D01*
X57326602Y-63759421D01*
X57175506Y-63445667D01*
X56990230Y-63150803D01*
X56990228Y-63150800D01*
X56990227Y-63150798D01*
X56773112Y-62878543D01*
X56526856Y-62632287D01*
X56254601Y-62415172D01*
X56254599Y-62415171D01*
X55959730Y-62229892D01*
X55645982Y-62078799D01*
X55317292Y-61963785D01*
X55317284Y-61963782D01*
X55062648Y-61905663D01*
X54977771Y-61886291D01*
X54977767Y-61886290D01*
X54977758Y-61886289D01*
X54631724Y-61847300D01*
X54631720Y-61847300D01*
X54283480Y-61847300D01*
X54283475Y-61847300D01*
X53937441Y-61886289D01*
X53937429Y-61886291D01*
X53597915Y-61963782D01*
X53597907Y-61963785D01*
X53269217Y-62078799D01*
X52955469Y-62229892D01*
X52660600Y-62415171D01*
X52660598Y-62415172D01*
X52388343Y-62632287D01*
X52142087Y-62878543D01*
X51924972Y-63150798D01*
X51924971Y-63150800D01*
X51739692Y-63445669D01*
X51588599Y-63759417D01*
X51473585Y-64088107D01*
X51473582Y-64088115D01*
X51396091Y-64427629D01*
X51396089Y-64427641D01*
X51357100Y-64773675D01*
X50300500Y-64773675D01*
X50300500Y-51185000D01*
X52777169Y-51185000D01*
X53821388Y-51185000D01*
X53788475Y-51242007D01*
X53754400Y-51369174D01*
X53754400Y-51500826D01*
X53788475Y-51627993D01*
X53821388Y-51685000D01*
X52777169Y-51685000D01*
X52787642Y-51751126D01*
X52787642Y-51751129D01*
X52853304Y-51953217D01*
X52949779Y-52142557D01*
X53074672Y-52314459D01*
X53074676Y-52314464D01*
X53224935Y-52464723D01*
X53224940Y-52464727D01*
X53396842Y-52589620D01*
X53586182Y-52686095D01*
X53788270Y-52751757D01*
X53998154Y-52785000D01*
X54004400Y-52785000D01*
X54004400Y-51868012D01*
X54061407Y-51900925D01*
X54188574Y-51935000D01*
X54320226Y-51935000D01*
X54447393Y-51900925D01*
X54504400Y-51868012D01*
X54504400Y-52785000D01*
X54510646Y-52785000D01*
X54720527Y-52751757D01*
X54720530Y-52751757D01*
X54922617Y-52686095D01*
X55111957Y-52589620D01*
X55283859Y-52464727D01*
X55283864Y-52464723D01*
X55434123Y-52314464D01*
X55434127Y-52314459D01*
X55559020Y-52142557D01*
X55655495Y-51953217D01*
X55721157Y-51751129D01*
X55721157Y-51751126D01*
X55731631Y-51685000D01*
X54687412Y-51685000D01*
X54720325Y-51627993D01*
X54754400Y-51500826D01*
X54754400Y-51369174D01*
X54720325Y-51242007D01*
X54687412Y-51185000D01*
X55731631Y-51185000D01*
X55721157Y-51118873D01*
X55721157Y-51118870D01*
X55655495Y-50916782D01*
X55559020Y-50727442D01*
X55434127Y-50555540D01*
X55434123Y-50555535D01*
X55283864Y-50405276D01*
X55283859Y-50405272D01*
X55119839Y-50286105D01*
X55077173Y-50230775D01*
X55071194Y-50161162D01*
X55103799Y-50099367D01*
X55147231Y-50070433D01*
X55276742Y-50019361D01*
X55397322Y-49927922D01*
X55488761Y-49807342D01*
X55544277Y-49666564D01*
X55554900Y-49578102D01*
X55554900Y-48291898D01*
X55544277Y-48203436D01*
X55488761Y-48062658D01*
X55488760Y-48062657D01*
X55488760Y-48062656D01*
X55397322Y-47942077D01*
X55276743Y-47850639D01*
X55135961Y-47795122D01*
X55090326Y-47789642D01*
X55047502Y-47784500D01*
X53461298Y-47784500D01*
X53422253Y-47789188D01*
X53372838Y-47795122D01*
X53232056Y-47850639D01*
X53111477Y-47942077D01*
X53020039Y-48062656D01*
X52964522Y-48203438D01*
X52958588Y-48252853D01*
X52953900Y-48291898D01*
X52953900Y-49578102D01*
X52959526Y-49624954D01*
X52964522Y-49666561D01*
X53020039Y-49807343D01*
X53111477Y-49927922D01*
X53232058Y-50019361D01*
X53232060Y-50019362D01*
X53361565Y-50070433D01*
X53416709Y-50113338D01*
X53439902Y-50179246D01*
X53423781Y-50247231D01*
X53388960Y-50286105D01*
X53224940Y-50405272D01*
X53224935Y-50405276D01*
X53074676Y-50555535D01*
X53074672Y-50555540D01*
X52949779Y-50727442D01*
X52853304Y-50916782D01*
X52787642Y-51118870D01*
X52787642Y-51118873D01*
X52777169Y-51185000D01*
X50300500Y-51185000D01*
X50300500Y-45006153D01*
X55333500Y-45006153D01*
X55333500Y-45163846D01*
X55364261Y-45318489D01*
X55364264Y-45318501D01*
X55424602Y-45464172D01*
X55424609Y-45464185D01*
X55512210Y-45595288D01*
X55512213Y-45595292D01*
X55623707Y-45706786D01*
X55623711Y-45706789D01*
X55754814Y-45794390D01*
X55754827Y-45794397D01*
X55900498Y-45854735D01*
X55900503Y-45854737D01*
X56055153Y-45885499D01*
X56055156Y-45885500D01*
X56055158Y-45885500D01*
X62613644Y-45885500D01*
X62613645Y-45885499D01*
X62768297Y-45854737D01*
X62913979Y-45794394D01*
X63045089Y-45706789D01*
X63156589Y-45595289D01*
X63244194Y-45464179D01*
X63304537Y-45318497D01*
X63335300Y-45163842D01*
X63335300Y-45006158D01*
X63335300Y-45006155D01*
X63335299Y-45006153D01*
X63304538Y-44851510D01*
X63304537Y-44851503D01*
X63304535Y-44851498D01*
X63244197Y-44705827D01*
X63244190Y-44705814D01*
X63156589Y-44574711D01*
X63156586Y-44574707D01*
X63045092Y-44463213D01*
X63045088Y-44463210D01*
X62913985Y-44375609D01*
X62913972Y-44375602D01*
X62768301Y-44315264D01*
X62768289Y-44315261D01*
X62613645Y-44284500D01*
X62613642Y-44284500D01*
X56055158Y-44284500D01*
X56055155Y-44284500D01*
X55900510Y-44315261D01*
X55900498Y-44315264D01*
X55754827Y-44375602D01*
X55754814Y-44375609D01*
X55623711Y-44463210D01*
X55623707Y-44463213D01*
X55512213Y-44574707D01*
X55512210Y-44574711D01*
X55424609Y-44705814D01*
X55424602Y-44705827D01*
X55364264Y-44851498D01*
X55364261Y-44851510D01*
X55333500Y-45006153D01*
X50300500Y-45006153D01*
X50300500Y-42744777D01*
X57885775Y-42744777D01*
X57991036Y-42788378D01*
X57991040Y-42788379D01*
X58135926Y-42817199D01*
X58135929Y-42817200D01*
X58283671Y-42817200D01*
X58283673Y-42817199D01*
X58428560Y-42788379D01*
X58428575Y-42788375D01*
X58533824Y-42744778D01*
X58533824Y-42744777D01*
X59085775Y-42744777D01*
X59191036Y-42788378D01*
X59191040Y-42788379D01*
X59335926Y-42817199D01*
X59335929Y-42817200D01*
X59483671Y-42817200D01*
X59483673Y-42817199D01*
X59628560Y-42788379D01*
X59628575Y-42788375D01*
X59733824Y-42744778D01*
X59733824Y-42744777D01*
X60285775Y-42744777D01*
X60391036Y-42788378D01*
X60391040Y-42788379D01*
X60535926Y-42817199D01*
X60535929Y-42817200D01*
X60683671Y-42817200D01*
X60683673Y-42817199D01*
X60828560Y-42788379D01*
X60828575Y-42788375D01*
X60933824Y-42744778D01*
X60933824Y-42744777D01*
X60609801Y-42420754D01*
X60609800Y-42420754D01*
X60285775Y-42744777D01*
X59733824Y-42744777D01*
X59409801Y-42420754D01*
X59409800Y-42420754D01*
X59085775Y-42744777D01*
X58533824Y-42744777D01*
X58209801Y-42420754D01*
X58209800Y-42420754D01*
X57885775Y-42744777D01*
X50300500Y-42744777D01*
X50300500Y-41993326D01*
X57459800Y-41993326D01*
X57459800Y-42141073D01*
X57488620Y-42285959D01*
X57488622Y-42285967D01*
X57532221Y-42391224D01*
X57856246Y-42067200D01*
X57856246Y-42067199D01*
X57836356Y-42047309D01*
X58109800Y-42047309D01*
X58109800Y-42087091D01*
X58125024Y-42123845D01*
X58153155Y-42151976D01*
X58189909Y-42167200D01*
X58229691Y-42167200D01*
X58266445Y-42151976D01*
X58294576Y-42123845D01*
X58309800Y-42087091D01*
X58309800Y-42067200D01*
X58563354Y-42067200D01*
X58809800Y-42313646D01*
X59056246Y-42067200D01*
X59036355Y-42047309D01*
X59309800Y-42047309D01*
X59309800Y-42087091D01*
X59325024Y-42123845D01*
X59353155Y-42151976D01*
X59389909Y-42167200D01*
X59429691Y-42167200D01*
X59466445Y-42151976D01*
X59494576Y-42123845D01*
X59509800Y-42087091D01*
X59509800Y-42067200D01*
X59763354Y-42067200D01*
X60009800Y-42313646D01*
X60256246Y-42067200D01*
X60236355Y-42047309D01*
X60509800Y-42047309D01*
X60509800Y-42087091D01*
X60525024Y-42123845D01*
X60553155Y-42151976D01*
X60589909Y-42167200D01*
X60629691Y-42167200D01*
X60666445Y-42151976D01*
X60694576Y-42123845D01*
X60709800Y-42087091D01*
X60709800Y-42067199D01*
X60963354Y-42067199D01*
X60963354Y-42067201D01*
X61287377Y-42391224D01*
X61287378Y-42391224D01*
X61330975Y-42285975D01*
X61330979Y-42285960D01*
X61359799Y-42141073D01*
X61359800Y-42141071D01*
X61359800Y-41993328D01*
X61359799Y-41993326D01*
X61330979Y-41848440D01*
X61330978Y-41848436D01*
X61287377Y-41743175D01*
X60963354Y-42067199D01*
X60709800Y-42067199D01*
X60709800Y-42047309D01*
X60694576Y-42010555D01*
X60666445Y-41982424D01*
X60629691Y-41967200D01*
X60589909Y-41967200D01*
X60553155Y-41982424D01*
X60525024Y-42010555D01*
X60509800Y-42047309D01*
X60236355Y-42047309D01*
X60009800Y-41820754D01*
X59763354Y-42067200D01*
X59509800Y-42067200D01*
X59509800Y-42047309D01*
X59494576Y-42010555D01*
X59466445Y-41982424D01*
X59429691Y-41967200D01*
X59389909Y-41967200D01*
X59353155Y-41982424D01*
X59325024Y-42010555D01*
X59309800Y-42047309D01*
X59036355Y-42047309D01*
X58809800Y-41820754D01*
X58563354Y-42067200D01*
X58309800Y-42067200D01*
X58309800Y-42047309D01*
X58294576Y-42010555D01*
X58266445Y-41982424D01*
X58229691Y-41967200D01*
X58189909Y-41967200D01*
X58153155Y-41982424D01*
X58125024Y-42010555D01*
X58109800Y-42047309D01*
X57836356Y-42047309D01*
X57532221Y-41743174D01*
X57532220Y-41743174D01*
X57488623Y-41848428D01*
X57488620Y-41848440D01*
X57459800Y-41993326D01*
X50300500Y-41993326D01*
X50300500Y-41345130D01*
X57885422Y-41345130D01*
X57885422Y-41389268D01*
X58209800Y-41713646D01*
X58209801Y-41713646D01*
X58534176Y-41389269D01*
X58534176Y-41383052D01*
X58532286Y-41378249D01*
X58534061Y-41345130D01*
X59085422Y-41345130D01*
X59085422Y-41389268D01*
X59409800Y-41713646D01*
X59409801Y-41713646D01*
X59734176Y-41389269D01*
X59734176Y-41383052D01*
X59732286Y-41378249D01*
X59734061Y-41345130D01*
X60285422Y-41345130D01*
X60285422Y-41389268D01*
X60609800Y-41713646D01*
X60609801Y-41713646D01*
X60934176Y-41389269D01*
X60934176Y-41345129D01*
X60609801Y-41020754D01*
X60609800Y-41020754D01*
X60285422Y-41345130D01*
X59734061Y-41345130D01*
X59734067Y-41345020D01*
X59409801Y-41020754D01*
X59409800Y-41020754D01*
X59085422Y-41345130D01*
X58534061Y-41345130D01*
X58534067Y-41345020D01*
X58209801Y-41020754D01*
X58209800Y-41020754D01*
X57885422Y-41345130D01*
X50300500Y-41345130D01*
X50300500Y-40593326D01*
X57459800Y-40593326D01*
X57459800Y-40741073D01*
X57488620Y-40885959D01*
X57488622Y-40885967D01*
X57532221Y-40991224D01*
X57856246Y-40667200D01*
X57856246Y-40667199D01*
X57836356Y-40647309D01*
X58109800Y-40647309D01*
X58109800Y-40687091D01*
X58125024Y-40723845D01*
X58153155Y-40751976D01*
X58189909Y-40767200D01*
X58229691Y-40767200D01*
X58266445Y-40751976D01*
X58294576Y-40723845D01*
X58309800Y-40687091D01*
X58309800Y-40667200D01*
X58563354Y-40667200D01*
X58809800Y-40913646D01*
X59056246Y-40667200D01*
X59036355Y-40647309D01*
X59309800Y-40647309D01*
X59309800Y-40687091D01*
X59325024Y-40723845D01*
X59353155Y-40751976D01*
X59389909Y-40767200D01*
X59429691Y-40767200D01*
X59466445Y-40751976D01*
X59494576Y-40723845D01*
X59509800Y-40687091D01*
X59509800Y-40667200D01*
X59763354Y-40667200D01*
X60009800Y-40913646D01*
X60256246Y-40667200D01*
X60236355Y-40647309D01*
X60509800Y-40647309D01*
X60509800Y-40687091D01*
X60525024Y-40723845D01*
X60553155Y-40751976D01*
X60589909Y-40767200D01*
X60629691Y-40767200D01*
X60666445Y-40751976D01*
X60694576Y-40723845D01*
X60709800Y-40687091D01*
X60709800Y-40667199D01*
X60963354Y-40667199D01*
X60963354Y-40667201D01*
X61287377Y-40991224D01*
X61287378Y-40991224D01*
X61330975Y-40885975D01*
X61330979Y-40885960D01*
X61359799Y-40741073D01*
X61359800Y-40741071D01*
X61359800Y-40593328D01*
X61359799Y-40593326D01*
X61330979Y-40448440D01*
X61330978Y-40448436D01*
X61287377Y-40343175D01*
X60963354Y-40667199D01*
X60709800Y-40667199D01*
X60709800Y-40647309D01*
X60694576Y-40610555D01*
X60666445Y-40582424D01*
X60629691Y-40567200D01*
X60589909Y-40567200D01*
X60553155Y-40582424D01*
X60525024Y-40610555D01*
X60509800Y-40647309D01*
X60236355Y-40647309D01*
X60009800Y-40420754D01*
X59763354Y-40667200D01*
X59509800Y-40667200D01*
X59509800Y-40647309D01*
X59494576Y-40610555D01*
X59466445Y-40582424D01*
X59429691Y-40567200D01*
X59389909Y-40567200D01*
X59353155Y-40582424D01*
X59325024Y-40610555D01*
X59309800Y-40647309D01*
X59036355Y-40647309D01*
X58809800Y-40420754D01*
X58563354Y-40667200D01*
X58309800Y-40667200D01*
X58309800Y-40647309D01*
X58294576Y-40610555D01*
X58266445Y-40582424D01*
X58229691Y-40567200D01*
X58189909Y-40567200D01*
X58153155Y-40582424D01*
X58125024Y-40610555D01*
X58109800Y-40647309D01*
X57836356Y-40647309D01*
X57532221Y-40343174D01*
X57532220Y-40343174D01*
X57488623Y-40448428D01*
X57488620Y-40448440D01*
X57459800Y-40593326D01*
X50300500Y-40593326D01*
X50300500Y-39989620D01*
X57885774Y-39989620D01*
X57885774Y-39989621D01*
X58209800Y-40313646D01*
X58209801Y-40313646D01*
X58533824Y-39989621D01*
X58533822Y-39989620D01*
X59085774Y-39989620D01*
X59085774Y-39989621D01*
X59409800Y-40313646D01*
X59409801Y-40313646D01*
X59733824Y-39989621D01*
X59733822Y-39989620D01*
X60285774Y-39989620D01*
X60285774Y-39989621D01*
X60609800Y-40313646D01*
X60609801Y-40313646D01*
X60933824Y-39989621D01*
X60828567Y-39946022D01*
X60828559Y-39946020D01*
X60683672Y-39917200D01*
X60535928Y-39917200D01*
X60391040Y-39946020D01*
X60391028Y-39946023D01*
X60285774Y-39989620D01*
X59733822Y-39989620D01*
X59628567Y-39946022D01*
X59628559Y-39946020D01*
X59483672Y-39917200D01*
X59335928Y-39917200D01*
X59191040Y-39946020D01*
X59191028Y-39946023D01*
X59085774Y-39989620D01*
X58533822Y-39989620D01*
X58428567Y-39946022D01*
X58428559Y-39946020D01*
X58283672Y-39917200D01*
X58135928Y-39917200D01*
X57991040Y-39946020D01*
X57991028Y-39946023D01*
X57885774Y-39989620D01*
X50300500Y-39989620D01*
X50300500Y-33095298D01*
X65011100Y-33095298D01*
X65011100Y-34681502D01*
X65015605Y-34719017D01*
X65021722Y-34769961D01*
X65077239Y-34910743D01*
X65168677Y-35031322D01*
X65289256Y-35122760D01*
X65289257Y-35122760D01*
X65289258Y-35122761D01*
X65430036Y-35178277D01*
X65518498Y-35188900D01*
X65518503Y-35188900D01*
X66804697Y-35188900D01*
X66804702Y-35188900D01*
X66893164Y-35178277D01*
X67033942Y-35122761D01*
X67154522Y-35031322D01*
X67245961Y-34910742D01*
X67297033Y-34781232D01*
X67339938Y-34726090D01*
X67405846Y-34702897D01*
X67473830Y-34719017D01*
X67512705Y-34753839D01*
X67631872Y-34917859D01*
X67631876Y-34917864D01*
X67782135Y-35068123D01*
X67782140Y-35068127D01*
X67954042Y-35193020D01*
X68143382Y-35289495D01*
X68345471Y-35355157D01*
X68411600Y-35365631D01*
X68411600Y-34321412D01*
X68468607Y-34354325D01*
X68595774Y-34388400D01*
X68727426Y-34388400D01*
X68854593Y-34354325D01*
X68911600Y-34321412D01*
X68911600Y-35365630D01*
X68977726Y-35355157D01*
X68977729Y-35355157D01*
X69179817Y-35289495D01*
X69369157Y-35193020D01*
X69541059Y-35068127D01*
X69541064Y-35068123D01*
X69691323Y-34917864D01*
X69691327Y-34917859D01*
X69816220Y-34745957D01*
X69912695Y-34556617D01*
X69978357Y-34354530D01*
X69978357Y-34354527D01*
X70011600Y-34144646D01*
X70011600Y-34138400D01*
X69094612Y-34138400D01*
X69127525Y-34081393D01*
X69161600Y-33954226D01*
X69161600Y-33822574D01*
X69131295Y-33709475D01*
X72185100Y-33709475D01*
X72185100Y-34057724D01*
X72224089Y-34403758D01*
X72224091Y-34403770D01*
X72301582Y-34743284D01*
X72301585Y-34743292D01*
X72416599Y-35071982D01*
X72567692Y-35385730D01*
X72752971Y-35680599D01*
X72752972Y-35680601D01*
X72970087Y-35952856D01*
X73216343Y-36199112D01*
X73488598Y-36416227D01*
X73488601Y-36416228D01*
X73488603Y-36416230D01*
X73783467Y-36601506D01*
X74097221Y-36752602D01*
X74344088Y-36838984D01*
X74425907Y-36867614D01*
X74425915Y-36867617D01*
X74425918Y-36867617D01*
X74425919Y-36867618D01*
X74765429Y-36945109D01*
X75111476Y-36984099D01*
X75111477Y-36984100D01*
X75111480Y-36984100D01*
X75459723Y-36984100D01*
X75459723Y-36984099D01*
X75805771Y-36945109D01*
X76145281Y-36867618D01*
X76473979Y-36752602D01*
X76787733Y-36601506D01*
X77082597Y-36416230D01*
X77082601Y-36416227D01*
X77354856Y-36199112D01*
X77354858Y-36199109D01*
X77354863Y-36199106D01*
X77601106Y-35952863D01*
X77818230Y-35680597D01*
X78003506Y-35385733D01*
X78154602Y-35071979D01*
X78269618Y-34743281D01*
X78347109Y-34403771D01*
X78386100Y-34057720D01*
X78386100Y-33709480D01*
X78347109Y-33363429D01*
X78269618Y-33023919D01*
X78269282Y-33022960D01*
X78214380Y-32866058D01*
X78154602Y-32695221D01*
X78003506Y-32381467D01*
X77818230Y-32086603D01*
X77818228Y-32086600D01*
X77818227Y-32086598D01*
X77601112Y-31814343D01*
X77354856Y-31568087D01*
X77082601Y-31350972D01*
X77082599Y-31350971D01*
X76787730Y-31165692D01*
X76473982Y-31014599D01*
X76145292Y-30899585D01*
X76145284Y-30899582D01*
X75890648Y-30841463D01*
X75805771Y-30822091D01*
X75805767Y-30822090D01*
X75805758Y-30822089D01*
X75459724Y-30783100D01*
X75459720Y-30783100D01*
X75111480Y-30783100D01*
X75111475Y-30783100D01*
X74765441Y-30822089D01*
X74765429Y-30822091D01*
X74425915Y-30899582D01*
X74425907Y-30899585D01*
X74097217Y-31014599D01*
X73783469Y-31165692D01*
X73488600Y-31350971D01*
X73488598Y-31350972D01*
X73216343Y-31568087D01*
X72970087Y-31814343D01*
X72752972Y-32086598D01*
X72752971Y-32086600D01*
X72567692Y-32381469D01*
X72416599Y-32695217D01*
X72301585Y-33023907D01*
X72301582Y-33023915D01*
X72224091Y-33363429D01*
X72224089Y-33363441D01*
X72185100Y-33709475D01*
X69131295Y-33709475D01*
X69127525Y-33695407D01*
X69094612Y-33638400D01*
X70011600Y-33638400D01*
X70011600Y-33632153D01*
X69978357Y-33422272D01*
X69978357Y-33422269D01*
X69912695Y-33220182D01*
X69816220Y-33030842D01*
X69691327Y-32858940D01*
X69691323Y-32858935D01*
X69541064Y-32708676D01*
X69541059Y-32708672D01*
X69369157Y-32583779D01*
X69179815Y-32487303D01*
X68977724Y-32421641D01*
X68911600Y-32411168D01*
X68911600Y-33455388D01*
X68854593Y-33422475D01*
X68727426Y-33388400D01*
X68595774Y-33388400D01*
X68468607Y-33422475D01*
X68411600Y-33455388D01*
X68411600Y-32411168D01*
X68411599Y-32411168D01*
X68345475Y-32421641D01*
X68143384Y-32487303D01*
X67954042Y-32583779D01*
X67782140Y-32708672D01*
X67782135Y-32708676D01*
X67631876Y-32858935D01*
X67631872Y-32858940D01*
X67512705Y-33022960D01*
X67457375Y-33065626D01*
X67387762Y-33071605D01*
X67325967Y-33038999D01*
X67297033Y-32995565D01*
X67245962Y-32866060D01*
X67245961Y-32866058D01*
X67154522Y-32745477D01*
X67033943Y-32654039D01*
X66893161Y-32598522D01*
X66847526Y-32593042D01*
X66804702Y-32587900D01*
X65518498Y-32587900D01*
X65479453Y-32592588D01*
X65430038Y-32598522D01*
X65289256Y-32654039D01*
X65168677Y-32745477D01*
X65077239Y-32866056D01*
X65021722Y-33006838D01*
X65015788Y-33056253D01*
X65011100Y-33095298D01*
X50300500Y-33095298D01*
X50300500Y-33003480D01*
X50300695Y-32996527D01*
X50308022Y-32866056D01*
X50317084Y-32704691D01*
X50318638Y-32690898D01*
X50367015Y-32406167D01*
X50370109Y-32392615D01*
X50441563Y-32144596D01*
X50450061Y-32115096D01*
X50454653Y-32101975D01*
X50565175Y-31835151D01*
X50571195Y-31822651D01*
X50710902Y-31569868D01*
X50718297Y-31558100D01*
X50759842Y-31499548D01*
X50885422Y-31322559D01*
X50894077Y-31311705D01*
X51086534Y-31096346D01*
X51096346Y-31086534D01*
X51311705Y-30894077D01*
X51322559Y-30885422D01*
X51558105Y-30718293D01*
X51569868Y-30710902D01*
X51822651Y-30571195D01*
X51835151Y-30565175D01*
X52101979Y-30454651D01*
X52115096Y-30450061D01*
X52392621Y-30370107D01*
X52406167Y-30367015D01*
X52690898Y-30318638D01*
X52704691Y-30317084D01*
X52996528Y-30300695D01*
X53003481Y-30300500D01*
X53047595Y-30300500D01*
X75952405Y-30300500D01*
X75996519Y-30300500D01*
X76003472Y-30300695D01*
G37*
%TD.AperFunction*%
%TD*%
M02*
